<svg width="492" height="88" viewBox="0 0 492 88" fill="none" xmlns="http://www.w3.org/2000/svg">
<path d="M7.47159 13.5625C7.41856 13.0663 7.19508 12.6799 6.80114 12.4034C6.41099 12.1269 5.90341 11.9886 5.27841 11.9886C4.83902 11.9886 4.46212 12.0549 4.14773 12.1875C3.83333 12.3201 3.5928 12.5 3.42614 12.7273C3.25947 12.9545 3.17424 13.214 3.17045 13.5057C3.17045 13.7481 3.22538 13.9583 3.33523 14.1364C3.44886 14.3144 3.60227 14.4659 3.79545 14.5909C3.98864 14.7121 4.20265 14.8144 4.4375 14.8977C4.67235 14.9811 4.90909 15.0511 5.14773 15.108L6.23864 15.3807C6.67803 15.483 7.10038 15.6212 7.50568 15.7955C7.91477 15.9697 8.2803 16.1894 8.60227 16.4545C8.92803 16.7197 9.18561 17.0398 9.375 17.4148C9.56439 17.7898 9.65909 18.2292 9.65909 18.733C9.65909 19.4148 9.48485 20.0152 9.13636 20.5341C8.78788 21.0492 8.28409 21.4527 7.625 21.7443C6.9697 22.0322 6.17614 22.1761 5.24432 22.1761C4.33902 22.1761 3.55303 22.036 2.88636 21.7557C2.22348 21.4754 1.70455 21.0663 1.32955 20.5284C0.958333 19.9905 0.757576 19.3352 0.727273 18.5625H2.80114C2.83144 18.9678 2.95644 19.3049 3.17614 19.5739C3.39583 19.8428 3.68182 20.0436 4.03409 20.1761C4.39015 20.3087 4.78788 20.375 5.22727 20.375C5.68561 20.375 6.08712 20.3068 6.43182 20.1705C6.7803 20.0303 7.05303 19.8371 7.25 19.5909C7.44697 19.3409 7.54735 19.0492 7.55114 18.7159C7.54735 18.4129 7.45833 18.1629 7.28409 17.9659C7.10985 17.7652 6.86553 17.5985 6.55114 17.4659C6.24053 17.3295 5.87689 17.2083 5.46023 17.1023L4.13636 16.7614C3.17803 16.5152 2.42045 16.142 1.86364 15.642C1.31061 15.1383 1.03409 14.4697 1.03409 13.6364C1.03409 12.9508 1.2197 12.3504 1.59091 11.8352C1.96591 11.3201 2.47538 10.9205 3.11932 10.6364C3.76326 10.3485 4.49242 10.2045 5.30682 10.2045C6.13258 10.2045 6.85606 10.3485 7.47727 10.6364C8.10227 10.9205 8.5928 11.3163 8.94886 11.8239C9.30492 12.3277 9.48864 12.9072 9.5 13.5625H7.47159ZM13.9588 22.1761C13.4058 22.1761 12.9077 22.0777 12.4645 21.8807C12.0251 21.6799 11.6766 21.3845 11.419 20.9943C11.1652 20.6042 11.0384 20.1231 11.0384 19.5511C11.0384 19.0587 11.1293 18.6515 11.3111 18.3295C11.4929 18.0076 11.741 17.75 12.0554 17.5568C12.3698 17.3636 12.724 17.2178 13.1179 17.1193C13.5156 17.017 13.9266 16.9432 14.3509 16.8977C14.8622 16.8447 15.277 16.7973 15.5952 16.7557C15.9134 16.7102 16.1444 16.642 16.2884 16.5511C16.4361 16.4564 16.5099 16.3106 16.5099 16.1136V16.0795C16.5099 15.6515 16.383 15.3201 16.1293 15.0852C15.8755 14.8504 15.5099 14.733 15.0327 14.733C14.5289 14.733 14.1293 14.8428 13.8338 15.0625C13.5421 15.2822 13.3452 15.5417 13.2429 15.8409L11.3224 15.5682C11.474 15.0379 11.724 14.5947 12.0724 14.2386C12.4209 13.8788 12.8471 13.6098 13.3509 13.4318C13.8546 13.25 14.4115 13.1591 15.0213 13.1591C15.4418 13.1591 15.8603 13.2083 16.277 13.3068C16.6937 13.4053 17.0743 13.5682 17.419 13.7955C17.7637 14.0189 18.0402 14.3239 18.2486 14.7102C18.4607 15.0966 18.5668 15.5795 18.5668 16.1591V22H16.5895V20.8011H16.5213C16.3963 21.0436 16.2202 21.2708 15.9929 21.483C15.7694 21.6913 15.4872 21.8598 15.1463 21.9886C14.8092 22.1136 14.4134 22.1761 13.9588 22.1761ZM14.4929 20.6648C14.9058 20.6648 15.2637 20.5833 15.5668 20.4205C15.8698 20.2538 16.1027 20.0341 16.2656 19.7614C16.4323 19.4886 16.5156 19.1913 16.5156 18.8693V17.8409C16.4512 17.8939 16.3414 17.9432 16.1861 17.9886C16.0346 18.0341 15.8641 18.0739 15.6747 18.108C15.4853 18.142 15.2978 18.1723 15.1122 18.1989C14.9266 18.2254 14.7656 18.2481 14.6293 18.267C14.3224 18.3087 14.0478 18.3769 13.8054 18.4716C13.563 18.5663 13.3717 18.6989 13.2315 18.8693C13.0914 19.036 13.0213 19.2519 13.0213 19.517C13.0213 19.8958 13.1596 20.1818 13.4361 20.375C13.7126 20.5682 14.0649 20.6648 14.4929 20.6648ZM22.6918 16.8864V22H20.6349V13.2727H22.6009V14.7557H22.7031C22.9039 14.267 23.224 13.8788 23.6634 13.5909C24.1065 13.303 24.6539 13.1591 25.3054 13.1591C25.9077 13.1591 26.4323 13.2879 26.8793 13.5455C27.33 13.803 27.6785 14.1761 27.9247 14.6648C28.1747 15.1534 28.2978 15.7462 28.294 16.4432V22H26.2372V16.7614C26.2372 16.178 26.0857 15.7216 25.7827 15.392C25.4834 15.0625 25.0687 14.8977 24.5384 14.8977C24.1785 14.8977 23.8584 14.9773 23.5781 15.1364C23.3016 15.2917 23.0838 15.517 22.9247 15.8125C22.7694 16.108 22.6918 16.4659 22.6918 16.8864ZM33.6236 22.1534C32.938 22.1534 32.3243 21.9773 31.7827 21.625C31.241 21.2727 30.813 20.7614 30.4986 20.0909C30.1842 19.4205 30.027 18.6061 30.027 17.6477C30.027 16.678 30.1861 15.8598 30.5043 15.1932C30.8262 14.5227 31.2599 14.017 31.8054 13.6761C32.3509 13.3314 32.9588 13.1591 33.6293 13.1591C34.1406 13.1591 34.5611 13.2462 34.8906 13.4205C35.2202 13.5909 35.4815 13.7973 35.6747 14.0398C35.8679 14.2784 36.0175 14.5038 36.1236 14.7159H36.2088V10.3636H38.2713V22H36.2486V20.625H36.1236C36.0175 20.8371 35.8641 21.0625 35.6634 21.3011C35.4626 21.536 35.1974 21.7367 34.8679 21.9034C34.5384 22.0701 34.1236 22.1534 33.6236 22.1534ZM34.1974 20.4659C34.633 20.4659 35.0043 20.3485 35.3111 20.1136C35.6179 19.875 35.8509 19.5436 36.0099 19.1193C36.169 18.6951 36.2486 18.2008 36.2486 17.6364C36.2486 17.072 36.169 16.5814 36.0099 16.1648C35.8546 15.7481 35.6236 15.4242 35.3168 15.1932C35.0137 14.9621 34.6406 14.8466 34.1974 14.8466C33.7391 14.8466 33.3565 14.9659 33.0497 15.2045C32.7429 15.4432 32.5118 15.7727 32.3565 16.1932C32.2012 16.6136 32.1236 17.0947 32.1236 17.6364C32.1236 18.1818 32.2012 18.6686 32.3565 19.0966C32.5156 19.5208 32.7486 19.8561 33.0554 20.1023C33.366 20.3447 33.7467 20.4659 34.1974 20.4659ZM41.7415 25.2727C41.4612 25.2727 41.2017 25.25 40.9631 25.2045C40.7282 25.1629 40.5407 25.1136 40.4006 25.0568L40.8778 23.4545C41.1771 23.5417 41.4441 23.5833 41.679 23.5795C41.9138 23.5758 42.1203 23.5019 42.2983 23.358C42.4801 23.2178 42.6335 22.983 42.7585 22.6534L42.9347 22.1818L39.7699 13.2727H41.9517L43.9631 19.8636H44.054L46.071 13.2727H48.2585L44.7642 23.0568C44.6013 23.5189 44.3854 23.9148 44.1165 24.2443C43.8475 24.5777 43.518 24.8314 43.1278 25.0057C42.7415 25.1837 42.2794 25.2727 41.7415 25.2727Z" fill="#161616"/>
<path d="M63.304 10.3636V22H61.429L55.946 14.0739H55.8494V22H53.7415V10.3636H55.6278L61.1051 18.2955H61.2074V10.3636H63.304ZM69.3168 22.1705C68.4645 22.1705 67.7259 21.983 67.1009 21.608C66.4759 21.233 65.991 20.7083 65.6463 20.0341C65.3054 19.3598 65.1349 18.572 65.1349 17.6705C65.1349 16.7689 65.3054 15.9792 65.6463 15.3011C65.991 14.6231 66.4759 14.0966 67.1009 13.7216C67.7259 13.3466 68.4645 13.1591 69.3168 13.1591C70.169 13.1591 70.9077 13.3466 71.5327 13.7216C72.1577 14.0966 72.6406 14.6231 72.9815 15.3011C73.3262 15.9792 73.4986 16.7689 73.4986 17.6705C73.4986 18.572 73.3262 19.3598 72.9815 20.0341C72.6406 20.7083 72.1577 21.233 71.5327 21.608C70.9077 21.983 70.169 22.1705 69.3168 22.1705ZM69.3281 20.5227C69.7902 20.5227 70.1766 20.3958 70.4872 20.142C70.7978 19.8845 71.0289 19.5398 71.1804 19.108C71.3357 18.6761 71.4134 18.1951 71.4134 17.6648C71.4134 17.1307 71.3357 16.6477 71.1804 16.2159C71.0289 15.7803 70.7978 15.4337 70.4872 15.1761C70.1766 14.9186 69.7902 14.7898 69.3281 14.7898C68.8546 14.7898 68.4607 14.9186 68.1463 15.1761C67.8357 15.4337 67.6027 15.7803 67.4474 16.2159C67.2959 16.6477 67.2202 17.1307 67.2202 17.6648C67.2202 18.1951 67.2959 18.6761 67.4474 19.108C67.6027 19.5398 67.8357 19.8845 68.1463 20.142C68.4607 20.3958 68.8546 20.5227 69.3281 20.5227ZM82.7429 13.2727L79.6349 22H77.3622L74.2543 13.2727H76.4474L78.4531 19.7557H78.544L80.5554 13.2727H82.7429ZM87.733 22.1705C86.858 22.1705 86.1023 21.9886 85.4659 21.625C84.8333 21.2576 84.3466 20.7386 84.0057 20.0682C83.6648 19.3939 83.4943 18.6004 83.4943 17.6875C83.4943 16.7898 83.6648 16.0019 84.0057 15.3239C84.3504 14.642 84.8314 14.1117 85.4489 13.733C86.0663 13.3504 86.7917 13.1591 87.625 13.1591C88.1629 13.1591 88.6705 13.2462 89.1477 13.4205C89.6288 13.5909 90.053 13.8561 90.4205 14.2159C90.7917 14.5758 91.0833 15.0341 91.2955 15.5909C91.5076 16.1439 91.6136 16.803 91.6136 17.5682V18.1989H84.4602V16.8125H89.642C89.6383 16.4186 89.553 16.0682 89.3864 15.7614C89.2197 15.4508 88.9867 15.2064 88.6875 15.0284C88.392 14.8504 88.0473 14.7614 87.6534 14.7614C87.233 14.7614 86.8636 14.8636 86.5455 15.0682C86.2273 15.2689 85.9792 15.5341 85.8011 15.8636C85.6269 16.1894 85.5379 16.5473 85.5341 16.9375V18.1477C85.5341 18.6553 85.6269 19.0909 85.8125 19.4545C85.9981 19.8144 86.2576 20.0909 86.5909 20.2841C86.9242 20.4735 87.3144 20.5682 87.7614 20.5682C88.0606 20.5682 88.3314 20.5265 88.5739 20.4432C88.8163 20.3561 89.0265 20.2292 89.2045 20.0625C89.3826 19.8958 89.517 19.6894 89.608 19.4432L91.5284 19.6591C91.4072 20.1667 91.1761 20.6098 90.8352 20.9886C90.4981 21.3636 90.0663 21.6553 89.5398 21.8636C89.0133 22.0682 88.411 22.1705 87.733 22.1705ZM93.3537 22V13.2727H95.3196V14.7557H95.4219C95.6037 14.2557 95.9048 13.8655 96.3253 13.5852C96.7457 13.3011 97.2476 13.1591 97.831 13.1591C98.4219 13.1591 98.92 13.303 99.3253 13.5909C99.7344 13.875 100.022 14.2633 100.189 14.7557H100.28C100.473 14.2708 100.799 13.8845 101.257 13.5966C101.719 13.3049 102.267 13.1591 102.899 13.1591C103.702 13.1591 104.357 13.4129 104.865 13.9205C105.373 14.428 105.626 15.1686 105.626 16.142V22H103.564V16.4602C103.564 15.9186 103.42 15.5227 103.132 15.2727C102.844 15.0189 102.492 14.892 102.075 14.892C101.579 14.892 101.191 15.0473 100.911 15.358C100.634 15.6648 100.496 16.0644 100.496 16.5568V22H98.4787V16.375C98.4787 15.9242 98.3423 15.5644 98.0696 15.2955C97.8007 15.0265 97.4484 14.892 97.0128 14.892C96.7173 14.892 96.4484 14.9678 96.206 15.1193C95.9635 15.267 95.7704 15.4773 95.6264 15.75C95.4825 16.0189 95.4105 16.3333 95.4105 16.6932V22H93.3537ZM107.804 22V10.3636H109.861V14.7159H109.946C110.052 14.5038 110.202 14.2784 110.395 14.0398C110.588 13.7973 110.849 13.5909 111.179 13.4205C111.509 13.2462 111.929 13.1591 112.44 13.1591C113.115 13.1591 113.723 13.3314 114.264 13.6761C114.81 14.017 115.241 14.5227 115.56 15.1932C115.882 15.8598 116.043 16.678 116.043 17.6477C116.043 18.6061 115.885 19.4205 115.571 20.0909C115.257 20.7614 114.829 21.2727 114.287 21.625C113.745 21.9773 113.132 22.1534 112.446 22.1534C111.946 22.1534 111.531 22.0701 111.202 21.9034C110.872 21.7367 110.607 21.536 110.406 21.3011C110.209 21.0625 110.056 20.8371 109.946 20.625H109.827V22H107.804ZM109.821 17.6364C109.821 18.2008 109.901 18.6951 110.06 19.1193C110.223 19.5436 110.455 19.875 110.759 20.1136C111.065 20.3485 111.437 20.4659 111.872 20.4659C112.327 20.4659 112.707 20.3447 113.014 20.1023C113.321 19.8561 113.552 19.5208 113.707 19.0966C113.866 18.6686 113.946 18.1818 113.946 17.6364C113.946 17.0947 113.868 16.6136 113.713 16.1932C113.558 15.7727 113.327 15.4432 113.02 15.2045C112.713 14.9659 112.33 14.8466 111.872 14.8466C111.433 14.8466 111.06 14.9621 110.753 15.1932C110.446 15.4242 110.213 15.7481 110.054 16.1648C109.899 16.5814 109.821 17.072 109.821 17.6364ZM121.655 22.1705C120.78 22.1705 120.024 21.9886 119.388 21.625C118.755 21.2576 118.268 20.7386 117.928 20.0682C117.587 19.3939 117.416 18.6004 117.416 17.6875C117.416 16.7898 117.587 16.0019 117.928 15.3239C118.272 14.642 118.753 14.1117 119.371 13.733C119.988 13.3504 120.714 13.1591 121.547 13.1591C122.085 13.1591 122.592 13.2462 123.07 13.4205C123.551 13.5909 123.975 13.8561 124.342 14.2159C124.714 14.5758 125.005 15.0341 125.217 15.5909C125.429 16.1439 125.536 16.803 125.536 17.5682V18.1989H118.382V16.8125H123.564C123.56 16.4186 123.475 16.0682 123.308 15.7614C123.142 15.4508 122.909 15.2064 122.609 15.0284C122.314 14.8504 121.969 14.7614 121.575 14.7614C121.155 14.7614 120.786 14.8636 120.467 15.0682C120.149 15.2689 119.901 15.5341 119.723 15.8636C119.549 16.1894 119.46 16.5473 119.456 16.9375V18.1477C119.456 18.6553 119.549 19.0909 119.734 19.4545C119.92 19.8144 120.179 20.0909 120.513 20.2841C120.846 20.4735 121.236 20.5682 121.683 20.5682C121.982 20.5682 122.253 20.5265 122.496 20.4432C122.738 20.3561 122.948 20.2292 123.126 20.0625C123.304 19.8958 123.439 19.6894 123.53 19.4432L125.45 19.6591C125.329 20.1667 125.098 20.6098 124.757 20.9886C124.42 21.3636 123.988 21.6553 123.462 21.8636C122.935 22.0682 122.333 22.1705 121.655 22.1705ZM127.276 22V13.2727H129.27V14.7273H129.361C129.52 14.2235 129.793 13.8352 130.179 13.5625C130.569 13.286 131.014 13.1477 131.514 13.1477C131.628 13.1477 131.755 13.1534 131.895 13.1648C132.039 13.1723 132.158 13.1856 132.253 13.2045V15.0966C132.166 15.0663 132.027 15.0398 131.838 15.017C131.652 14.9905 131.473 14.9773 131.298 14.9773C130.923 14.9773 130.586 15.0587 130.287 15.2216C129.991 15.3807 129.759 15.6023 129.588 15.8864C129.418 16.1705 129.332 16.4981 129.332 16.8693V22H127.276ZM137.565 22V20.4773L141.605 16.517C141.991 16.1269 142.313 15.7803 142.571 15.4773C142.829 15.1742 143.022 14.8807 143.151 14.5966C143.279 14.3125 143.344 14.0095 143.344 13.6875C143.344 13.3201 143.26 13.0057 143.094 12.7443C142.927 12.4792 142.698 12.2746 142.406 12.1307C142.115 11.9867 141.783 11.9148 141.412 11.9148C141.029 11.9148 140.694 11.9943 140.406 12.1534C140.118 12.3087 139.895 12.5303 139.736 12.8182C139.58 13.1061 139.503 13.4489 139.503 13.8466H137.497C137.497 13.108 137.666 12.4659 138.003 11.9205C138.34 11.375 138.804 10.9527 139.395 10.6534C139.99 10.3542 140.671 10.2045 141.44 10.2045C142.221 10.2045 142.906 10.3504 143.497 10.642C144.088 10.9337 144.546 11.3333 144.872 11.8409C145.202 12.3485 145.366 12.928 145.366 13.5795C145.366 14.0152 145.283 14.4432 145.116 14.8636C144.95 15.2841 144.656 15.75 144.236 16.2614C143.819 16.7727 143.234 17.392 142.48 18.1193L140.474 20.1591V20.2386H145.543V22H137.565ZM151.679 22.1591C150.861 22.1591 150.134 22.0189 149.497 21.7386C148.865 21.4583 148.365 21.0682 147.997 20.5682C147.63 20.0682 147.435 19.4905 147.412 18.8352H149.548C149.567 19.1496 149.671 19.4242 149.861 19.6591C150.05 19.8902 150.302 20.0701 150.616 20.1989C150.931 20.3277 151.283 20.392 151.673 20.392C152.09 20.392 152.459 20.3201 152.781 20.1761C153.103 20.0284 153.355 19.8239 153.537 19.5625C153.719 19.3011 153.808 19 153.804 18.6591C153.808 18.3068 153.717 17.9962 153.531 17.7273C153.346 17.4583 153.077 17.2481 152.724 17.0966C152.376 16.9451 151.955 16.8693 151.463 16.8693H150.435V15.2443H151.463C151.868 15.2443 152.223 15.1742 152.526 15.0341C152.832 14.8939 153.073 14.697 153.247 14.4432C153.421 14.1856 153.507 13.8883 153.503 13.5511C153.507 13.2216 153.433 12.9356 153.281 12.6932C153.134 12.447 152.923 12.2557 152.651 12.1193C152.382 11.983 152.065 11.9148 151.702 11.9148C151.346 11.9148 151.016 11.9792 150.713 12.108C150.41 12.2367 150.166 12.4205 149.98 12.6591C149.795 12.8939 149.696 13.1742 149.685 13.5H147.656C147.671 12.8485 147.859 12.2765 148.219 11.7841C148.582 11.2879 149.067 10.9015 149.673 10.625C150.279 10.3447 150.959 10.2045 151.713 10.2045C152.49 10.2045 153.164 10.3504 153.736 10.642C154.312 10.9299 154.757 11.3182 155.071 11.8068C155.385 12.2955 155.543 12.8352 155.543 13.4261C155.546 14.0814 155.353 14.6307 154.963 15.0739C154.577 15.517 154.069 15.8068 153.44 15.9432V16.0341C154.259 16.1477 154.885 16.4508 155.321 16.9432C155.76 17.4318 155.978 18.0398 155.974 18.767C155.974 19.4186 155.789 20.0019 155.418 20.517C155.05 21.0284 154.543 21.4299 153.895 21.7216C153.251 22.0133 152.512 22.1591 151.679 22.1591ZM160.018 20.4091L159.945 21.0341C159.892 21.5114 159.797 21.9962 159.661 22.4886C159.528 22.9848 159.388 23.4413 159.24 23.858C159.092 24.2746 158.973 24.6023 158.882 24.8409H157.496C157.549 24.6098 157.621 24.2955 157.712 23.8977C157.806 23.5 157.897 23.053 157.984 22.5568C158.071 22.0606 158.13 21.5568 158.161 21.0455L158.2 20.4091H160.018ZM165.909 22V20.4773L169.949 16.517C170.335 16.1269 170.657 15.7803 170.915 15.4773C171.172 15.1742 171.366 14.8807 171.494 14.5966C171.623 14.3125 171.688 14.0095 171.688 13.6875C171.688 13.3201 171.604 13.0057 171.438 12.7443C171.271 12.4792 171.042 12.2746 170.75 12.1307C170.458 11.9867 170.127 11.9148 169.756 11.9148C169.373 11.9148 169.038 11.9943 168.75 12.1534C168.462 12.3087 168.239 12.5303 168.08 12.8182C167.924 13.1061 167.847 13.4489 167.847 13.8466H165.841C165.841 13.108 166.009 12.4659 166.347 11.9205C166.684 11.375 167.148 10.9527 167.739 10.6534C168.333 10.3542 169.015 10.2045 169.784 10.2045C170.564 10.2045 171.25 10.3504 171.841 10.642C172.432 10.9337 172.89 11.3333 173.216 11.8409C173.545 12.3485 173.71 12.928 173.71 13.5795C173.71 14.0152 173.627 14.4432 173.46 14.8636C173.294 15.2841 173 15.75 172.58 16.2614C172.163 16.7727 171.578 17.392 170.824 18.1193L168.818 20.1591V20.2386H173.886V22H165.909ZM180.148 22.2216C179.212 22.2216 178.409 21.9848 177.739 21.5114C177.072 21.0341 176.559 20.3466 176.199 19.4489C175.843 18.5473 175.665 17.4621 175.665 16.1932C175.669 14.9242 175.848 13.8447 176.205 12.9545C176.564 12.0606 177.078 11.3788 177.744 10.9091C178.415 10.4394 179.216 10.2045 180.148 10.2045C181.08 10.2045 181.881 10.4394 182.551 10.9091C183.222 11.3788 183.735 12.0606 184.091 12.9545C184.451 13.8485 184.631 14.928 184.631 16.1932C184.631 17.4659 184.451 18.553 184.091 19.4545C183.735 20.3523 183.222 21.0379 182.551 21.5114C181.884 21.9848 181.083 22.2216 180.148 22.2216ZM180.148 20.4432C180.875 20.4432 181.449 20.0852 181.869 19.3693C182.294 18.6496 182.506 17.5909 182.506 16.1932C182.506 15.2689 182.409 14.4924 182.216 13.8636C182.023 13.2348 181.75 12.7614 181.398 12.4432C181.045 12.1212 180.629 11.9602 180.148 11.9602C179.424 11.9602 178.852 12.3201 178.432 13.0398C178.011 13.7557 177.799 14.8068 177.795 16.1932C177.792 17.1212 177.884 17.9015 178.074 18.5341C178.267 19.1667 178.54 19.6439 178.892 19.9659C179.244 20.2841 179.663 20.4432 180.148 20.4432ZM186.518 22V20.4773L190.558 16.517C190.945 16.1269 191.267 15.7803 191.524 15.4773C191.782 15.1742 191.975 14.8807 192.104 14.5966C192.232 14.3125 192.297 14.0095 192.297 13.6875C192.297 13.3201 192.214 13.0057 192.047 12.7443C191.88 12.4792 191.651 12.2746 191.359 12.1307C191.068 11.9867 190.736 11.9148 190.365 11.9148C189.982 11.9148 189.647 11.9943 189.359 12.1534C189.071 12.3087 188.848 12.5303 188.689 12.8182C188.534 13.1061 188.456 13.4489 188.456 13.8466H186.45C186.45 13.108 186.619 12.4659 186.956 11.9205C187.293 11.375 187.757 10.9527 188.348 10.6534C188.943 10.3542 189.625 10.2045 190.393 10.2045C191.174 10.2045 191.859 10.3504 192.45 10.642C193.041 10.9337 193.5 11.3333 193.825 11.8409C194.155 12.3485 194.32 12.928 194.32 13.5795C194.32 14.0152 194.236 14.4432 194.07 14.8636C193.903 15.2841 193.609 15.75 193.189 16.2614C192.772 16.7727 192.187 17.392 191.433 18.1193L189.428 20.1591V20.2386H194.496V22H186.518ZM196.456 22V20.4773L200.496 16.517C200.882 16.1269 201.204 15.7803 201.462 15.4773C201.719 15.1742 201.912 14.8807 202.041 14.5966C202.17 14.3125 202.234 14.0095 202.234 13.6875C202.234 13.3201 202.151 13.0057 201.984 12.7443C201.818 12.4792 201.589 12.2746 201.297 12.1307C201.005 11.9867 200.674 11.9148 200.303 11.9148C199.92 11.9148 199.585 11.9943 199.297 12.1534C199.009 12.3087 198.786 12.5303 198.626 12.8182C198.471 13.1061 198.393 13.4489 198.393 13.8466H196.388C196.388 13.108 196.556 12.4659 196.893 11.9205C197.231 11.375 197.695 10.9527 198.286 10.6534C198.88 10.3542 199.562 10.2045 200.331 10.2045C201.111 10.2045 201.797 10.3504 202.388 10.642C202.979 10.9337 203.437 11.3333 203.763 11.8409C204.092 12.3485 204.257 12.928 204.257 13.5795C204.257 14.0152 204.174 14.4432 204.007 14.8636C203.84 15.2841 203.547 15.75 203.126 16.2614C202.71 16.7727 202.125 17.392 201.371 18.1193L199.365 20.1591V20.2386H204.433V22H196.456Z" fill="#8C8C8C"/>
<path d="M0.704545 45.875V44.3636H9.71023V45.875H6.07955V56H4.32955V45.875H0.704545ZM13.2628 50.8182V56H11.5639V44.3636H13.2401V48.6932H13.348C13.5526 48.2235 13.8651 47.8504 14.2855 47.5739C14.706 47.2973 15.2552 47.1591 15.9332 47.1591C16.5317 47.1591 17.0545 47.2822 17.5014 47.5284C17.9522 47.7746 18.3007 48.142 18.5469 48.6307C18.7969 49.1155 18.9219 49.7216 18.9219 50.4489V56H17.223V50.6534C17.223 50.0133 17.0582 49.517 16.7287 49.1648C16.3991 48.8087 15.9408 48.6307 15.3537 48.6307C14.9522 48.6307 14.5923 48.7159 14.2741 48.8864C13.9598 49.0568 13.7116 49.3068 13.5298 49.6364C13.3518 49.9621 13.2628 50.3561 13.2628 50.8182ZM21.1889 56V47.2727H22.8878V56H21.1889ZM22.0469 45.9261C21.7514 45.9261 21.4976 45.8277 21.2855 45.6307C21.0772 45.4299 20.973 45.1913 20.973 44.9148C20.973 44.6345 21.0772 44.3958 21.2855 44.1989C21.4976 43.9981 21.7514 43.8977 22.0469 43.8977C22.3423 43.8977 22.5942 43.9981 22.8026 44.1989C23.0147 44.3958 23.1207 44.6345 23.1207 44.9148C23.1207 45.1913 23.0147 45.4299 22.8026 45.6307C22.5942 45.8277 22.3423 45.9261 22.0469 45.9261ZM31.7131 49.4034L30.1733 49.6761C30.1089 49.4792 30.0066 49.2917 29.8665 49.1136C29.7301 48.9356 29.5445 48.7898 29.3097 48.6761C29.0748 48.5625 28.7813 48.5057 28.429 48.5057C27.9479 48.5057 27.5464 48.6136 27.2244 48.8295C26.9025 49.0417 26.7415 49.3163 26.7415 49.6534C26.7415 49.9451 26.8494 50.1799 27.0653 50.358C27.2813 50.536 27.6297 50.6818 28.1108 50.7955L29.4972 51.1136C30.3002 51.2992 30.8987 51.5852 31.2926 51.9716C31.6866 52.358 31.8835 52.8598 31.8835 53.4773C31.8835 54 31.732 54.4659 31.429 54.875C31.1297 55.2803 30.7112 55.5985 30.1733 55.8295C29.6392 56.0606 29.0199 56.1761 28.3153 56.1761C27.3381 56.1761 26.5407 55.9678 25.9233 55.5511C25.3059 55.1307 24.9271 54.5341 24.7869 53.7614L26.429 53.5114C26.5313 53.9394 26.7415 54.2633 27.0597 54.483C27.3778 54.6989 27.7926 54.8068 28.304 54.8068C28.8608 54.8068 29.3059 54.6913 29.6392 54.4602C29.9725 54.2254 30.1392 53.9394 30.1392 53.6023C30.1392 53.3295 30.0369 53.1004 29.8324 52.9148C29.6316 52.7292 29.3229 52.589 28.9062 52.4943L27.429 52.1705C26.6146 51.9848 26.0123 51.6894 25.6222 51.2841C25.2358 50.8788 25.0426 50.3655 25.0426 49.7443C25.0426 49.2292 25.1866 48.7784 25.4744 48.392C25.7623 48.0057 26.16 47.7045 26.6676 47.4886C27.1752 47.2689 27.7566 47.1591 28.4119 47.1591C29.3551 47.1591 30.0975 47.3636 30.6392 47.7727C31.1809 48.178 31.5388 48.7216 31.7131 49.4034ZM37.9858 56V47.2727H39.6847V56H37.9858ZM38.8438 45.9261C38.5483 45.9261 38.2945 45.8277 38.0824 45.6307C37.8741 45.4299 37.7699 45.1913 37.7699 44.9148C37.7699 44.6345 37.8741 44.3958 38.0824 44.1989C38.2945 43.9981 38.5483 43.8977 38.8438 43.8977C39.1392 43.8977 39.3911 43.9981 39.5994 44.1989C39.8116 44.3958 39.9176 44.6345 39.9176 44.9148C39.9176 45.1913 39.8116 45.4299 39.5994 45.6307C39.3911 45.8277 39.1392 45.9261 38.8438 45.9261ZM48.5099 49.4034L46.9702 49.6761C46.9058 49.4792 46.8035 49.2917 46.6634 49.1136C46.527 48.9356 46.3414 48.7898 46.1065 48.6761C45.8717 48.5625 45.5781 48.5057 45.2259 48.5057C44.7448 48.5057 44.3433 48.6136 44.0213 48.8295C43.6993 49.0417 43.5384 49.3163 43.5384 49.6534C43.5384 49.9451 43.6463 50.1799 43.8622 50.358C44.0781 50.536 44.4266 50.6818 44.9077 50.7955L46.294 51.1136C47.0971 51.2992 47.6955 51.5852 48.0895 51.9716C48.4834 52.358 48.6804 52.8598 48.6804 53.4773C48.6804 54 48.5289 54.4659 48.2259 54.875C47.9266 55.2803 47.508 55.5985 46.9702 55.8295C46.4361 56.0606 45.8168 56.1761 45.1122 56.1761C44.1349 56.1761 43.3376 55.9678 42.7202 55.5511C42.1027 55.1307 41.724 54.5341 41.5838 53.7614L43.2259 53.5114C43.3281 53.9394 43.5384 54.2633 43.8565 54.483C44.1747 54.6989 44.5895 54.8068 45.1009 54.8068C45.6577 54.8068 46.1027 54.6913 46.4361 54.4602C46.7694 54.2254 46.9361 53.9394 46.9361 53.6023C46.9361 53.3295 46.8338 53.1004 46.6293 52.9148C46.4285 52.7292 46.1198 52.589 45.7031 52.4943L44.2259 52.1705C43.4115 51.9848 42.8092 51.6894 42.419 51.2841C42.0327 50.8788 41.8395 50.3655 41.8395 49.7443C41.8395 49.2292 41.9834 48.7784 42.2713 48.392C42.5592 48.0057 42.9569 47.7045 43.4645 47.4886C43.9721 47.2689 44.5535 47.1591 45.2088 47.1591C46.152 47.1591 46.8944 47.3636 47.4361 47.7727C47.9777 48.178 48.3357 48.7216 48.5099 49.4034ZM58.4588 56.1761C57.6406 56.1761 56.9266 55.9886 56.3168 55.6136C55.7069 55.2386 55.2334 54.714 54.8963 54.0398C54.5592 53.3655 54.3906 52.5777 54.3906 51.6761C54.3906 50.7708 54.5592 49.9792 54.8963 49.3011C55.2334 48.6231 55.7069 48.0966 56.3168 47.7216C56.9266 47.3466 57.6406 47.1591 58.4588 47.1591C59.277 47.1591 59.991 47.3466 60.6009 47.7216C61.2107 48.0966 61.6842 48.6231 62.0213 49.3011C62.3584 49.9792 62.527 50.7708 62.527 51.6761C62.527 52.5777 62.3584 53.3655 62.0213 54.0398C61.6842 54.714 61.2107 55.2386 60.6009 55.6136C59.991 55.9886 59.277 56.1761 58.4588 56.1761ZM58.4645 54.75C58.9948 54.75 59.4342 54.6098 59.7827 54.3295C60.1312 54.0492 60.3887 53.6761 60.5554 53.2102C60.7259 52.7443 60.8111 52.2311 60.8111 51.6705C60.8111 51.1136 60.7259 50.6023 60.5554 50.1364C60.3887 49.6667 60.1312 49.2898 59.7827 49.0057C59.4342 48.7216 58.9948 48.5795 58.4645 48.5795C57.9304 48.5795 57.4872 48.7216 57.1349 49.0057C56.7865 49.2898 56.527 49.6667 56.3565 50.1364C56.1899 50.6023 56.1065 51.1136 56.1065 51.6705C56.1065 52.2311 56.1899 52.7443 56.3565 53.2102C56.527 53.6761 56.7865 54.0492 57.1349 54.3295C57.4872 54.6098 57.9304 54.75 58.4645 54.75ZM69.9517 52.3807V47.2727H71.6562V56H69.9858V54.4886H69.8949C69.6941 54.9545 69.3722 55.3428 68.929 55.6534C68.4896 55.9602 67.9422 56.1136 67.2869 56.1136C66.7263 56.1136 66.2301 55.9905 65.7983 55.7443C65.3703 55.4943 65.0331 55.125 64.7869 54.6364C64.5445 54.1477 64.4233 53.5436 64.4233 52.8239V47.2727H66.1222V52.6193C66.1222 53.214 66.2869 53.6875 66.6165 54.0398C66.946 54.392 67.3741 54.5682 67.9006 54.5682C68.2188 54.5682 68.535 54.4886 68.8494 54.3295C69.1676 54.1705 69.4309 53.9299 69.6392 53.608C69.8513 53.286 69.9555 52.8769 69.9517 52.3807ZM73.9389 56V47.2727H75.581V48.6591H75.6719C75.831 48.1894 76.1113 47.8201 76.5128 47.5511C76.9181 47.2784 77.3764 47.142 77.8878 47.142C77.9938 47.142 78.1188 47.1458 78.2628 47.1534C78.4105 47.161 78.526 47.1705 78.6094 47.1818V48.8068C78.5412 48.7879 78.42 48.767 78.2457 48.7443C78.0715 48.7178 77.8973 48.7045 77.723 48.7045C77.3215 48.7045 76.9635 48.7898 76.6491 48.9602C76.3385 49.1269 76.0923 49.3598 75.9105 49.6591C75.7287 49.9545 75.6378 50.2917 75.6378 50.6705V56H73.9389ZM88.3878 47.2727V48.6364H83.6207V47.2727H88.3878ZM84.8991 45.1818H86.598V53.4375C86.598 53.767 86.6473 54.0152 86.7457 54.1818C86.8442 54.3447 86.9711 54.4564 87.1264 54.517C87.2855 54.5739 87.4579 54.6023 87.6435 54.6023C87.7798 54.6023 87.8991 54.5928 88.0014 54.5739C88.1037 54.5549 88.1832 54.5398 88.2401 54.5284L88.5469 55.9318C88.4484 55.9697 88.3082 56.0076 88.1264 56.0455C87.9446 56.0871 87.7173 56.1098 87.4446 56.1136C86.9976 56.1212 86.581 56.0417 86.1946 55.875C85.8082 55.7083 85.4957 55.4508 85.2571 55.1023C85.0185 54.7538 84.8991 54.3163 84.8991 53.7898V45.1818ZM92.1534 50.8182V56H90.4545V44.3636H92.1307V48.6932H92.2386C92.4432 48.2235 92.7557 47.8504 93.1761 47.5739C93.5966 47.2973 94.1458 47.1591 94.8239 47.1591C95.4223 47.1591 95.9451 47.2822 96.392 47.5284C96.8428 47.7746 97.1913 48.142 97.4375 48.6307C97.6875 49.1155 97.8125 49.7216 97.8125 50.4489V56H96.1136V50.6534C96.1136 50.0133 95.9489 49.517 95.6193 49.1648C95.2898 48.8087 94.8314 48.6307 94.2443 48.6307C93.8428 48.6307 93.483 48.7159 93.1648 48.8864C92.8504 49.0568 92.6023 49.3068 92.4205 49.6364C92.2424 49.9621 92.1534 50.3561 92.1534 50.8182ZM100.08 56V47.2727H101.778V56H100.08ZM100.938 45.9261C100.642 45.9261 100.388 45.8277 100.176 45.6307C99.9678 45.4299 99.8636 45.1913 99.8636 44.9148C99.8636 44.6345 99.9678 44.3958 100.176 44.1989C100.388 43.9981 100.642 43.8977 100.938 43.8977C101.233 43.8977 101.485 43.9981 101.693 44.1989C101.905 44.3958 102.011 44.6345 102.011 44.9148C102.011 45.1913 101.905 45.4299 101.693 45.6307C101.485 45.8277 101.233 45.9261 100.938 45.9261ZM104.064 56V47.2727H105.706V48.6591H105.797C105.956 48.1894 106.236 47.8201 106.638 47.5511C107.043 47.2784 107.501 47.142 108.013 47.142C108.119 47.142 108.244 47.1458 108.388 47.1534C108.536 47.161 108.651 47.1705 108.734 47.1818V48.8068C108.666 48.7879 108.545 48.767 108.371 48.7443C108.196 48.7178 108.022 48.7045 107.848 48.7045C107.446 48.7045 107.089 48.7898 106.774 48.9602C106.464 49.1269 106.217 49.3598 106.036 49.6591C105.854 49.9545 105.763 50.2917 105.763 50.6705V56H104.064ZM113.159 56.1705C112.455 56.1705 111.826 55.9905 111.273 55.6307C110.723 55.267 110.292 54.75 109.977 54.0795C109.667 53.4053 109.511 52.5966 109.511 51.6534C109.511 50.7102 109.669 49.9034 109.983 49.233C110.301 48.5625 110.737 48.0492 111.29 47.6932C111.843 47.3371 112.47 47.1591 113.17 47.1591C113.712 47.1591 114.148 47.25 114.477 47.4318C114.811 47.6098 115.068 47.8182 115.25 48.0568C115.436 48.2955 115.58 48.5057 115.682 48.6875H115.784V44.3636H117.483V56H115.824V54.642H115.682C115.58 54.8277 115.432 55.0398 115.239 55.2784C115.049 55.517 114.788 55.7254 114.455 55.9034C114.121 56.0814 113.689 56.1705 113.159 56.1705ZM113.534 54.7216C114.023 54.7216 114.436 54.5928 114.773 54.3352C115.114 54.0739 115.371 53.7121 115.545 53.25C115.723 52.7879 115.812 52.25 115.812 51.6364C115.812 51.0303 115.725 50.5 115.551 50.0455C115.377 49.5909 115.121 49.2367 114.784 48.983C114.447 48.7292 114.03 48.6023 113.534 48.6023C113.023 48.6023 112.597 48.7348 112.256 49C111.915 49.2652 111.657 49.6269 111.483 50.0852C111.313 50.5436 111.227 51.0606 111.227 51.6364C111.227 52.2197 111.314 52.7443 111.489 53.2102C111.663 53.6761 111.92 54.0455 112.261 54.3182C112.606 54.5871 113.03 54.7216 113.534 54.7216ZM128.216 47.2727V48.6364H123.449V47.2727H128.216ZM124.727 45.1818H126.426V53.4375C126.426 53.767 126.475 54.0152 126.574 54.1818C126.672 54.3447 126.799 54.4564 126.955 54.517C127.114 54.5739 127.286 54.6023 127.472 54.6023C127.608 54.6023 127.727 54.5928 127.83 54.5739C127.932 54.5549 128.011 54.5398 128.068 54.5284L128.375 55.9318C128.277 55.9697 128.136 56.0076 127.955 56.0455C127.773 56.0871 127.545 56.1098 127.273 56.1136C126.826 56.1212 126.409 56.0417 126.023 55.875C125.636 55.7083 125.324 55.4508 125.085 55.1023C124.847 54.7538 124.727 54.3163 124.727 53.7898V45.1818ZM130.095 56V47.2727H131.794V56H130.095ZM130.953 45.9261C130.658 45.9261 130.404 45.8277 130.192 45.6307C129.983 45.4299 129.879 45.1913 129.879 44.9148C129.879 44.6345 129.983 44.3958 130.192 44.1989C130.404 43.9981 130.658 43.8977 130.953 43.8977C131.249 43.8977 131.5 43.9981 131.709 44.1989C131.921 44.3958 132.027 44.6345 132.027 44.9148C132.027 45.1913 131.921 45.4299 131.709 45.6307C131.5 45.8277 131.249 45.9261 130.953 45.9261ZM134.08 56V47.2727H135.71V48.6932H135.818C136 48.2121 136.297 47.8371 136.71 47.5682C137.123 47.2955 137.617 47.1591 138.193 47.1591C138.777 47.1591 139.265 47.2955 139.659 47.5682C140.057 47.8409 140.35 48.2159 140.54 48.6932H140.631C140.839 48.2273 141.17 47.8561 141.625 47.5795C142.08 47.2992 142.621 47.1591 143.25 47.1591C144.042 47.1591 144.688 47.4072 145.188 47.9034C145.691 48.3996 145.943 49.1477 145.943 50.1477V56H144.244V50.3068C144.244 49.7159 144.083 49.2879 143.761 49.0227C143.439 48.7576 143.055 48.625 142.608 48.625C142.055 48.625 141.625 48.7955 141.318 49.1364C141.011 49.4735 140.858 49.9072 140.858 50.4375V56H139.165V50.1989C139.165 49.7254 139.017 49.3447 138.722 49.0568C138.426 48.7689 138.042 48.625 137.568 48.625C137.246 48.625 136.949 48.7102 136.676 48.8807C136.407 49.0473 136.189 49.2803 136.023 49.5795C135.86 49.8788 135.778 50.2254 135.778 50.6193V56H134.08ZM151.982 56.1761C151.122 56.1761 150.381 55.9924 149.76 55.625C149.143 55.2538 148.665 54.733 148.328 54.0625C147.995 53.3883 147.828 52.5985 147.828 51.6932C147.828 50.7992 147.995 50.0114 148.328 49.3295C148.665 48.6477 149.135 48.1155 149.737 47.733C150.343 47.3504 151.052 47.1591 151.862 47.1591C152.355 47.1591 152.832 47.2405 153.294 47.4034C153.756 47.5663 154.171 47.822 154.538 48.1705C154.906 48.5189 155.196 48.9716 155.408 49.5284C155.62 50.0814 155.726 50.7538 155.726 51.5455V52.1477H148.788V50.875H154.061C154.061 50.428 153.97 50.0322 153.788 49.6875C153.607 49.339 153.351 49.0644 153.021 48.8636C152.696 48.6629 152.313 48.5625 151.874 48.5625C151.396 48.5625 150.98 48.6799 150.624 48.9148C150.271 49.1458 149.999 49.4489 149.805 49.8239C149.616 50.1951 149.521 50.5985 149.521 51.0341V52.0284C149.521 52.6117 149.624 53.108 149.828 53.517C150.036 53.9261 150.326 54.2386 150.697 54.4545C151.069 54.6667 151.502 54.7727 151.999 54.7727C152.321 54.7727 152.614 54.7273 152.879 54.6364C153.144 54.5417 153.374 54.4015 153.567 54.2159C153.76 54.0303 153.908 53.8011 154.01 53.5284L155.618 53.8182C155.489 54.2917 155.258 54.7064 154.925 55.0625C154.595 55.4148 154.18 55.6894 153.68 55.8864C153.184 56.0795 152.618 56.1761 151.982 56.1761ZM167.374 52.3807V47.2727H169.078V56H167.408V54.4886H167.317C167.116 54.9545 166.794 55.3428 166.351 55.6534C165.911 55.9602 165.364 56.1136 164.709 56.1136C164.148 56.1136 163.652 55.9905 163.22 55.7443C162.792 55.4943 162.455 55.125 162.209 54.6364C161.966 54.1477 161.845 53.5436 161.845 52.8239V47.2727H163.544V52.6193C163.544 53.214 163.709 53.6875 164.038 54.0398C164.368 54.392 164.796 54.5682 165.322 54.5682C165.641 54.5682 165.957 54.4886 166.271 54.3295C166.589 54.1705 166.853 53.9299 167.061 53.608C167.273 53.286 167.377 52.8769 167.374 52.3807ZM177.901 49.4034L176.361 49.6761C176.296 49.4792 176.194 49.2917 176.054 49.1136C175.918 48.9356 175.732 48.7898 175.497 48.6761C175.262 48.5625 174.969 48.5057 174.616 48.5057C174.135 48.5057 173.734 48.6136 173.412 48.8295C173.09 49.0417 172.929 49.3163 172.929 49.6534C172.929 49.9451 173.037 50.1799 173.253 50.358C173.469 50.536 173.817 50.6818 174.298 50.7955L175.685 51.1136C176.488 51.2992 177.086 51.5852 177.48 51.9716C177.874 52.358 178.071 52.8598 178.071 53.4773C178.071 54 177.92 54.4659 177.616 54.875C177.317 55.2803 176.899 55.5985 176.361 55.8295C175.827 56.0606 175.207 56.1761 174.503 56.1761C173.526 56.1761 172.728 55.9678 172.111 55.5511C171.493 55.1307 171.115 54.5341 170.974 53.7614L172.616 53.5114C172.719 53.9394 172.929 54.2633 173.247 54.483C173.565 54.6989 173.98 54.8068 174.491 54.8068C175.048 54.8068 175.493 54.6913 175.827 54.4602C176.16 54.2254 176.327 53.9394 176.327 53.6023C176.327 53.3295 176.224 53.1004 176.02 52.9148C175.819 52.7292 175.51 52.589 175.094 52.4943L173.616 52.1705C172.802 51.9848 172.2 51.6894 171.81 51.2841C171.423 50.8788 171.23 50.3655 171.23 49.7443C171.23 49.2292 171.374 48.7784 171.662 48.392C171.95 48.0057 172.348 47.7045 172.855 47.4886C173.363 47.2689 173.944 47.1591 174.599 47.1591C175.543 47.1591 176.285 47.3636 176.827 47.7727C177.368 48.178 177.726 48.7216 177.901 49.4034ZM179.939 56V47.2727H181.638V56H179.939ZM180.797 45.9261C180.501 45.9261 180.248 45.8277 180.036 45.6307C179.827 45.4299 179.723 45.1913 179.723 44.9148C179.723 44.6345 179.827 44.3958 180.036 44.1989C180.248 43.9981 180.501 43.8977 180.797 43.8977C181.092 43.8977 181.344 43.9981 181.553 44.1989C181.765 44.3958 181.871 44.6345 181.871 44.9148C181.871 45.1913 181.765 45.4299 181.553 45.6307C181.344 45.8277 181.092 45.9261 180.797 45.9261ZM185.622 50.8182V56H183.923V47.2727H185.554V48.6932H185.662C185.863 48.2311 186.177 47.8598 186.605 47.5795C187.037 47.2992 187.58 47.1591 188.236 47.1591C188.83 47.1591 189.351 47.2841 189.798 47.5341C190.245 47.7803 190.592 48.1477 190.838 48.6364C191.084 49.125 191.207 49.7292 191.207 50.4489V56H189.509V50.6534C189.509 50.0208 189.344 49.5265 189.014 49.1705C188.685 48.8106 188.232 48.6307 187.656 48.6307C187.262 48.6307 186.912 48.7159 186.605 48.8864C186.302 49.0568 186.062 49.3068 185.884 49.6364C185.709 49.9621 185.622 50.3561 185.622 50.8182ZM197.145 59.4545C196.452 59.4545 195.855 59.3636 195.355 59.1818C194.859 59 194.454 58.7595 194.139 58.4602C193.825 58.161 193.59 57.8333 193.435 57.4773L194.895 56.875C194.997 57.0417 195.134 57.2178 195.304 57.4034C195.478 57.5928 195.713 57.7538 196.009 57.8864C196.308 58.0189 196.692 58.0852 197.162 58.0852C197.806 58.0852 198.338 57.928 198.759 57.6136C199.179 57.303 199.389 56.8068 199.389 56.125V54.4091H199.281C199.179 54.5947 199.031 54.8011 198.838 55.0284C198.649 55.2557 198.387 55.4527 198.054 55.6193C197.721 55.786 197.287 55.8693 196.753 55.8693C196.063 55.8693 195.442 55.7083 194.889 55.3864C194.34 55.0606 193.904 54.5814 193.582 53.9489C193.264 53.3125 193.105 52.5303 193.105 51.6023C193.105 50.6742 193.262 49.8788 193.577 49.2159C193.895 48.553 194.33 48.0455 194.884 47.6932C195.437 47.3371 196.063 47.1591 196.764 47.1591C197.306 47.1591 197.743 47.25 198.077 47.4318C198.41 47.6098 198.67 47.8182 198.855 48.0568C199.045 48.2955 199.19 48.5057 199.293 48.6875H199.418V47.2727H201.082V56.1932C201.082 56.9432 200.908 57.5587 200.56 58.0398C200.211 58.5208 199.74 58.8769 199.145 59.108C198.554 59.339 197.887 59.4545 197.145 59.4545ZM197.128 54.4602C197.616 54.4602 198.029 54.3466 198.366 54.1193C198.707 53.8883 198.965 53.5587 199.139 53.1307C199.317 52.6989 199.406 52.1818 199.406 51.5795C199.406 50.9924 199.319 50.4754 199.145 50.0284C198.971 49.5814 198.715 49.233 198.378 48.983C198.041 48.7292 197.624 48.6023 197.128 48.6023C196.616 48.6023 196.19 48.7348 195.849 49C195.509 49.2614 195.251 49.6174 195.077 50.0682C194.906 50.5189 194.821 51.0227 194.821 51.5795C194.821 52.1515 194.908 52.6534 195.082 53.0852C195.257 53.517 195.514 53.8542 195.855 54.0966C196.2 54.339 196.624 54.4602 197.128 54.4602ZM211.669 47.2727V48.6364H206.902V47.2727H211.669ZM208.18 45.1818H209.879V53.4375C209.879 53.767 209.929 54.0152 210.027 54.1818C210.125 54.3447 210.252 54.4564 210.408 54.517C210.567 54.5739 210.739 54.6023 210.925 54.6023C211.061 54.6023 211.18 54.5928 211.283 54.5739C211.385 54.5549 211.464 54.5398 211.521 54.5284L211.828 55.9318C211.73 55.9697 211.589 56.0076 211.408 56.0455C211.226 56.0871 210.999 56.1098 210.726 56.1136C210.279 56.1212 209.862 56.0417 209.476 55.875C209.089 55.7083 208.777 55.4508 208.538 55.1023C208.3 54.7538 208.18 54.3163 208.18 53.7898V45.1818ZM215.435 50.8182V56H213.736V44.3636H215.412V48.6932H215.52C215.724 48.2235 216.037 47.8504 216.457 47.5739C216.878 47.2973 217.427 47.1591 218.105 47.1591C218.704 47.1591 219.226 47.2822 219.673 47.5284C220.124 47.7746 220.473 48.142 220.719 48.6307C220.969 49.1155 221.094 49.7216 221.094 50.4489V56H219.395V50.6534C219.395 50.0133 219.23 49.517 218.901 49.1648C218.571 48.8087 218.113 48.6307 217.526 48.6307C217.124 48.6307 216.764 48.7159 216.446 48.8864C216.132 49.0568 215.884 49.3068 215.702 49.6364C215.524 49.9621 215.435 50.3561 215.435 50.8182ZM227.122 56.1761C226.262 56.1761 225.522 55.9924 224.901 55.625C224.283 55.2538 223.806 54.733 223.469 54.0625C223.135 53.3883 222.969 52.5985 222.969 51.6932C222.969 50.7992 223.135 50.0114 223.469 49.3295C223.806 48.6477 224.276 48.1155 224.878 47.733C225.484 47.3504 226.192 47.1591 227.003 47.1591C227.495 47.1591 227.973 47.2405 228.435 47.4034C228.897 47.5663 229.312 47.822 229.679 48.1705C230.046 48.5189 230.336 48.9716 230.548 49.5284C230.76 50.0814 230.866 50.7538 230.866 51.5455V52.1477H223.929V50.875H229.202C229.202 50.428 229.111 50.0322 228.929 49.6875C228.747 49.339 228.491 49.0644 228.162 48.8636C227.836 48.6629 227.454 48.5625 227.014 48.5625C226.537 48.5625 226.12 48.6799 225.764 48.9148C225.412 49.1458 225.139 49.4489 224.946 49.8239C224.757 50.1951 224.662 50.5985 224.662 51.0341V52.0284C224.662 52.6117 224.764 53.108 224.969 53.517C225.177 53.9261 225.467 54.2386 225.838 54.4545C226.209 54.6667 226.643 54.7727 227.139 54.7727C227.461 54.7727 227.755 54.7273 228.02 54.6364C228.285 54.5417 228.514 54.4015 228.707 54.2159C228.901 54.0303 229.048 53.8011 229.151 53.5284L230.759 53.8182C230.63 54.2917 230.399 54.7064 230.065 55.0625C229.736 55.4148 229.321 55.6894 228.821 55.8864C228.325 56.0795 227.759 56.1761 227.122 56.1761ZM237.122 44.3636H239.253L242.957 53.4091H243.094L246.798 44.3636H248.929V56H247.259V47.5795H247.151L243.719 55.983H242.332L238.901 47.5739H238.793V56H237.122V44.3636ZM255.021 56.1761C254.203 56.1761 253.489 55.9886 252.879 55.6136C252.269 55.2386 251.796 54.714 251.459 54.0398C251.122 53.3655 250.953 52.5777 250.953 51.6761C250.953 50.7708 251.122 49.9792 251.459 49.3011C251.796 48.6231 252.269 48.0966 252.879 47.7216C253.489 47.3466 254.203 47.1591 255.021 47.1591C255.839 47.1591 256.554 47.3466 257.163 47.7216C257.773 48.0966 258.247 48.6231 258.584 49.3011C258.921 49.9792 259.089 50.7708 259.089 51.6761C259.089 52.5777 258.921 53.3655 258.584 54.0398C258.247 54.714 257.773 55.2386 257.163 55.6136C256.554 55.9886 255.839 56.1761 255.021 56.1761ZM255.027 54.75C255.557 54.75 255.997 54.6098 256.345 54.3295C256.694 54.0492 256.951 53.6761 257.118 53.2102C257.288 52.7443 257.374 52.2311 257.374 51.6705C257.374 51.1136 257.288 50.6023 257.118 50.1364C256.951 49.6667 256.694 49.2898 256.345 49.0057C255.997 48.7216 255.557 48.5795 255.027 48.5795C254.493 48.5795 254.05 48.7216 253.697 49.0057C253.349 49.2898 253.089 49.6667 252.919 50.1364C252.752 50.6023 252.669 51.1136 252.669 51.6705C252.669 52.2311 252.752 52.7443 252.919 53.2102C253.089 53.6761 253.349 54.0492 253.697 54.3295C254.05 54.6098 254.493 54.75 255.027 54.75ZM264.253 56.1705C263.548 56.1705 262.92 55.9905 262.366 55.6307C261.817 55.267 261.385 54.75 261.071 54.0795C260.76 53.4053 260.605 52.5966 260.605 51.6534C260.605 50.7102 260.762 49.9034 261.077 49.233C261.395 48.5625 261.83 48.0492 262.384 47.6932C262.937 47.3371 263.563 47.1591 264.264 47.1591C264.806 47.1591 265.241 47.25 265.571 47.4318C265.904 47.6098 266.162 47.8182 266.344 48.0568C266.529 48.2955 266.673 48.5057 266.776 48.6875H266.878V44.3636H268.577V56H266.918V54.642H266.776C266.673 54.8277 266.526 55.0398 266.332 55.2784C266.143 55.517 265.882 55.7254 265.548 55.9034C265.215 56.0814 264.783 56.1705 264.253 56.1705ZM264.628 54.7216C265.116 54.7216 265.529 54.5928 265.866 54.3352C266.207 54.0739 266.465 53.7121 266.639 53.25C266.817 52.7879 266.906 52.25 266.906 51.6364C266.906 51.0303 266.819 50.5 266.645 50.0455C266.471 49.5909 266.215 49.2367 265.878 48.983C265.541 48.7292 265.124 48.6023 264.628 48.6023C264.116 48.6023 263.69 48.7348 263.349 49C263.009 49.2652 262.751 49.6269 262.577 50.0852C262.406 50.5436 262.321 51.0606 262.321 51.6364C262.321 52.2197 262.408 52.7443 262.582 53.2102C262.757 53.6761 263.014 54.0455 263.355 54.3182C263.7 54.5871 264.124 54.7216 264.628 54.7216ZM274.763 56.1761C273.903 56.1761 273.162 55.9924 272.541 55.625C271.924 55.2538 271.446 54.733 271.109 54.0625C270.776 53.3883 270.609 52.5985 270.609 51.6932C270.609 50.7992 270.776 50.0114 271.109 49.3295C271.446 48.6477 271.916 48.1155 272.518 47.733C273.125 47.3504 273.833 47.1591 274.643 47.1591C275.136 47.1591 275.613 47.2405 276.075 47.4034C276.537 47.5663 276.952 47.822 277.32 48.1705C277.687 48.5189 277.977 48.9716 278.189 49.5284C278.401 50.0814 278.507 50.7538 278.507 51.5455V52.1477H271.57V50.875H276.842C276.842 50.428 276.751 50.0322 276.57 49.6875C276.388 49.339 276.132 49.0644 275.803 48.8636C275.477 48.6629 275.094 48.5625 274.655 48.5625C274.178 48.5625 273.761 48.6799 273.405 48.9148C273.053 49.1458 272.78 49.4489 272.587 49.8239C272.397 50.1951 272.303 50.5985 272.303 51.0341V52.0284C272.303 52.6117 272.405 53.108 272.609 53.517C272.818 53.9261 273.107 54.2386 273.479 54.4545C273.85 54.6667 274.284 54.7727 274.78 54.7727C275.102 54.7727 275.395 54.7273 275.661 54.6364C275.926 54.5417 276.155 54.4015 276.348 54.2159C276.541 54.0303 276.689 53.8011 276.791 53.5284L278.399 53.8182C278.27 54.2917 278.039 54.7064 277.706 55.0625C277.376 55.4148 276.962 55.6894 276.462 55.8864C275.965 56.0795 275.399 56.1761 274.763 56.1761ZM286.932 49.4034L285.392 49.6761C285.328 49.4792 285.225 49.2917 285.085 49.1136C284.949 48.9356 284.763 48.7898 284.528 48.6761C284.294 48.5625 284 48.5057 283.648 48.5057C283.167 48.5057 282.765 48.6136 282.443 48.8295C282.121 49.0417 281.96 49.3163 281.96 49.6534C281.96 49.9451 282.068 50.1799 282.284 50.358C282.5 50.536 282.848 50.6818 283.33 50.7955L284.716 51.1136C285.519 51.2992 286.117 51.5852 286.511 51.9716C286.905 52.358 287.102 52.8598 287.102 53.4773C287.102 54 286.951 54.4659 286.648 54.875C286.348 55.2803 285.93 55.5985 285.392 55.8295C284.858 56.0606 284.239 56.1761 283.534 56.1761C282.557 56.1761 281.759 55.9678 281.142 55.5511C280.525 55.1307 280.146 54.5341 280.006 53.7614L281.648 53.5114C281.75 53.9394 281.96 54.2633 282.278 54.483C282.597 54.6989 283.011 54.8068 283.523 54.8068C284.08 54.8068 284.525 54.6913 284.858 54.4602C285.191 54.2254 285.358 53.9394 285.358 53.6023C285.358 53.3295 285.256 53.1004 285.051 52.9148C284.85 52.7292 284.542 52.589 284.125 52.4943L282.648 52.1705C281.833 51.9848 281.231 51.6894 280.841 51.2841C280.455 50.8788 280.261 50.3655 280.261 49.7443C280.261 49.2292 280.405 48.7784 280.693 48.392C280.981 48.0057 281.379 47.7045 281.886 47.4886C282.394 47.2689 282.975 47.1591 283.631 47.1591C284.574 47.1591 285.316 47.3636 285.858 47.7727C286.4 48.178 286.758 48.7216 286.932 49.4034ZM293.044 47.2727V48.6364H288.277V47.2727H293.044ZM289.555 45.1818H291.254V53.4375C291.254 53.767 291.304 54.0152 291.402 54.1818C291.5 54.3447 291.627 54.4564 291.783 54.517C291.942 54.5739 292.114 54.6023 292.3 54.6023C292.436 54.6023 292.555 54.5928 292.658 54.5739C292.76 54.5549 292.839 54.5398 292.896 54.5284L293.203 55.9318C293.105 55.9697 292.964 56.0076 292.783 56.0455C292.601 56.0871 292.374 56.1098 292.101 56.1136C291.654 56.1212 291.237 56.0417 290.851 55.875C290.464 55.7083 290.152 55.4508 289.913 55.1023C289.675 54.7538 289.555 54.3163 289.555 53.7898V45.1818ZM299.294 56V44.3636H306.589V45.875H301.05V49.4205H306.209V50.9261H301.05V54.4886H306.658V56H299.294ZM310.139 47.2727L312.065 50.6705L314.009 47.2727H315.866L313.145 51.6364L315.889 56H314.031L312.065 52.7386L310.105 56H308.241L310.957 51.6364L308.276 47.2727H310.139ZM317.611 59.2727V47.2727H319.27V48.6875H319.412C319.51 48.5057 319.652 48.2955 319.838 48.0568C320.024 47.8182 320.281 47.6098 320.611 47.4318C320.94 47.25 321.376 47.1591 321.918 47.1591C322.622 47.1591 323.251 47.3371 323.804 47.6932C324.357 48.0492 324.791 48.5625 325.105 49.233C325.423 49.9034 325.582 50.7102 325.582 51.6534C325.582 52.5966 325.425 53.4053 325.111 54.0795C324.796 54.75 324.365 55.267 323.815 55.6307C323.266 55.9905 322.639 56.1705 321.935 56.1705C321.404 56.1705 320.971 56.0814 320.634 55.9034C320.3 55.7254 320.039 55.517 319.849 55.2784C319.66 55.0398 319.514 54.8277 319.412 54.642H319.31V59.2727H317.611ZM319.276 51.6364C319.276 52.25 319.365 52.7879 319.543 53.25C319.721 53.7121 319.978 54.0739 320.315 54.3352C320.652 54.5928 321.065 54.7216 321.554 54.7216C322.062 54.7216 322.486 54.5871 322.827 54.3182C323.168 54.0455 323.425 53.6761 323.599 53.2102C323.777 52.7443 323.866 52.2197 323.866 51.6364C323.866 51.0606 323.779 50.5436 323.605 50.0852C323.435 49.6269 323.177 49.2652 322.832 49C322.491 48.7348 322.065 48.6023 321.554 48.6023C321.062 48.6023 320.645 48.7292 320.304 48.983C319.967 49.2367 319.711 49.5909 319.537 50.0455C319.363 50.5 319.276 51.0303 319.276 51.6364ZM329.185 44.3636V56H327.486V44.3636H329.185ZM335.146 56.1761C334.328 56.1761 333.614 55.9886 333.004 55.6136C332.394 55.2386 331.921 54.714 331.584 54.0398C331.247 53.3655 331.078 52.5777 331.078 51.6761C331.078 50.7708 331.247 49.9792 331.584 49.3011C331.921 48.6231 332.394 48.0966 333.004 47.7216C333.614 47.3466 334.328 47.1591 335.146 47.1591C335.964 47.1591 336.679 47.3466 337.288 47.7216C337.898 48.0966 338.372 48.6231 338.709 49.3011C339.046 49.9792 339.214 50.7708 339.214 51.6761C339.214 52.5777 339.046 53.3655 338.709 54.0398C338.372 54.714 337.898 55.2386 337.288 55.6136C336.679 55.9886 335.964 56.1761 335.146 56.1761ZM335.152 54.75C335.682 54.75 336.122 54.6098 336.47 54.3295C336.819 54.0492 337.076 53.6761 337.243 53.2102C337.413 52.7443 337.499 52.2311 337.499 51.6705C337.499 51.1136 337.413 50.6023 337.243 50.1364C337.076 49.6667 336.819 49.2898 336.47 49.0057C336.122 48.7216 335.682 48.5795 335.152 48.5795C334.618 48.5795 334.175 48.7216 333.822 49.0057C333.474 49.2898 333.214 49.6667 333.044 50.1364C332.877 50.6023 332.794 51.1136 332.794 51.6705C332.794 52.2311 332.877 52.7443 333.044 53.2102C333.214 53.6761 333.474 54.0492 333.822 54.3295C334.175 54.6098 334.618 54.75 335.152 54.75ZM341.111 56V47.2727H342.753V48.6591H342.844C343.003 48.1894 343.283 47.8201 343.685 47.5511C344.09 47.2784 344.548 47.142 345.06 47.142C345.166 47.142 345.291 47.1458 345.435 47.1534C345.582 47.161 345.698 47.1705 345.781 47.1818V48.8068C345.713 48.7879 345.592 48.767 345.418 48.7443C345.243 48.7178 345.069 48.7045 344.895 48.7045C344.493 48.7045 344.135 48.7898 343.821 48.9602C343.51 49.1269 343.264 49.3598 343.082 49.6591C342.901 49.9545 342.81 50.2917 342.81 50.6705V56H341.111ZM350.7 56.1761C349.84 56.1761 349.1 55.9924 348.479 55.625C347.861 55.2538 347.384 54.733 347.047 54.0625C346.714 53.3883 346.547 52.5985 346.547 51.6932C346.547 50.7992 346.714 50.0114 347.047 49.3295C347.384 48.6477 347.854 48.1155 348.456 47.733C349.062 47.3504 349.77 47.1591 350.581 47.1591C351.073 47.1591 351.551 47.2405 352.013 47.4034C352.475 47.5663 352.89 47.822 353.257 48.1705C353.625 48.5189 353.914 48.9716 354.126 49.5284C354.339 50.0814 354.445 50.7538 354.445 51.5455V52.1477H347.507V50.875H352.78C352.78 50.428 352.689 50.0322 352.507 49.6875C352.325 49.339 352.07 49.0644 351.74 48.8636C351.414 48.6629 351.032 48.5625 350.592 48.5625C350.115 48.5625 349.698 48.6799 349.342 48.9148C348.99 49.1458 348.717 49.4489 348.524 49.8239C348.335 50.1951 348.24 50.5985 348.24 51.0341V52.0284C348.24 52.6117 348.342 53.108 348.547 53.517C348.755 53.9261 349.045 54.2386 349.416 54.4545C349.787 54.6667 350.221 54.7727 350.717 54.7727C351.039 54.7727 351.333 54.7273 351.598 54.6364C351.863 54.5417 352.092 54.4015 352.286 54.2159C352.479 54.0303 352.626 53.8011 352.729 53.5284L354.337 53.8182C354.208 54.2917 353.977 54.7064 353.643 55.0625C353.314 55.4148 352.899 55.6894 352.399 55.8864C351.903 56.0795 351.337 56.1761 350.7 56.1761ZM356.33 56V47.2727H357.972V48.6591H358.062C358.222 48.1894 358.502 47.8201 358.903 47.5511C359.309 47.2784 359.767 47.142 360.278 47.142C360.384 47.142 360.509 47.1458 360.653 47.1534C360.801 47.161 360.917 47.1705 361 47.1818V48.8068C360.932 48.7879 360.811 48.767 360.636 48.7443C360.462 48.7178 360.288 48.7045 360.114 48.7045C359.712 48.7045 359.354 48.7898 359.04 48.9602C358.729 49.1269 358.483 49.3598 358.301 49.6591C358.119 49.9545 358.028 50.2917 358.028 50.6705V56H356.33ZM370.858 47.2727V48.6364H365.926V47.2727H370.858ZM367.278 56V46.2614C367.278 45.7159 367.398 45.2633 367.636 44.9034C367.875 44.5398 368.191 44.2689 368.585 44.0909C368.979 43.9091 369.407 43.8182 369.869 43.8182C370.21 43.8182 370.502 43.8466 370.744 43.9034C370.987 43.9564 371.167 44.0057 371.284 44.0511L370.886 45.4261C370.807 45.4034 370.705 45.3769 370.58 45.3466C370.455 45.3125 370.303 45.2955 370.125 45.2955C369.712 45.2955 369.417 45.3977 369.239 45.6023C369.064 45.8068 368.977 46.1023 368.977 46.4886V56H367.278ZM375.943 56.1761C375.125 56.1761 374.411 55.9886 373.801 55.6136C373.191 55.2386 372.718 54.714 372.381 54.0398C372.044 53.3655 371.875 52.5777 371.875 51.6761C371.875 50.7708 372.044 49.9792 372.381 49.3011C372.718 48.6231 373.191 48.0966 373.801 47.7216C374.411 47.3466 375.125 47.1591 375.943 47.1591C376.761 47.1591 377.475 47.3466 378.085 47.7216C378.695 48.0966 379.169 48.6231 379.506 49.3011C379.843 49.9792 380.011 50.7708 380.011 51.6761C380.011 52.5777 379.843 53.3655 379.506 54.0398C379.169 54.714 378.695 55.2386 378.085 55.6136C377.475 55.9886 376.761 56.1761 375.943 56.1761ZM375.949 54.75C376.479 54.75 376.919 54.6098 377.267 54.3295C377.616 54.0492 377.873 53.6761 378.04 53.2102C378.21 52.7443 378.295 52.2311 378.295 51.6705C378.295 51.1136 378.21 50.6023 378.04 50.1364C377.873 49.6667 377.616 49.2898 377.267 49.0057C376.919 48.7216 376.479 48.5795 375.949 48.5795C375.415 48.5795 374.972 48.7216 374.619 49.0057C374.271 49.2898 374.011 49.6667 373.841 50.1364C373.674 50.6023 373.591 51.1136 373.591 51.6705C373.591 52.2311 373.674 52.7443 373.841 53.2102C374.011 53.6761 374.271 54.0492 374.619 54.3295C374.972 54.6098 375.415 54.75 375.949 54.75ZM381.908 56V47.2727H383.55V48.6591H383.641C383.8 48.1894 384.08 47.8201 384.482 47.5511C384.887 47.2784 385.345 47.142 385.857 47.142C385.963 47.142 386.088 47.1458 386.232 47.1534C386.379 47.161 386.495 47.1705 386.578 47.1818V48.8068C386.51 48.7879 386.389 48.767 386.214 48.7443C386.04 48.7178 385.866 48.7045 385.692 48.7045C385.29 48.7045 384.932 48.7898 384.618 48.9602C384.307 49.1269 384.061 49.3598 383.879 49.6591C383.697 49.9545 383.607 50.2917 383.607 50.6705V56H381.908ZM395.959 56.1761C395.141 56.1761 394.427 55.9886 393.817 55.6136C393.207 55.2386 392.733 54.714 392.396 54.0398C392.059 53.3655 391.891 52.5777 391.891 51.6761C391.891 50.7708 392.059 49.9792 392.396 49.3011C392.733 48.6231 393.207 48.0966 393.817 47.7216C394.427 47.3466 395.141 47.1591 395.959 47.1591C396.777 47.1591 397.491 47.3466 398.101 47.7216C398.711 48.0966 399.184 48.6231 399.521 49.3011C399.858 49.9792 400.027 50.7708 400.027 51.6761C400.027 52.5777 399.858 53.3655 399.521 54.0398C399.184 54.714 398.711 55.2386 398.101 55.6136C397.491 55.9886 396.777 56.1761 395.959 56.1761ZM395.964 54.75C396.495 54.75 396.934 54.6098 397.283 54.3295C397.631 54.0492 397.889 53.6761 398.055 53.2102C398.226 52.7443 398.311 52.2311 398.311 51.6705C398.311 51.1136 398.226 50.6023 398.055 50.1364C397.889 49.6667 397.631 49.2898 397.283 49.0057C396.934 48.7216 396.495 48.5795 395.964 48.5795C395.43 48.5795 394.987 48.7216 394.635 49.0057C394.286 49.2898 394.027 49.6667 393.857 50.1364C393.69 50.6023 393.607 51.1136 393.607 51.6705C393.607 52.2311 393.69 52.7443 393.857 53.2102C394.027 53.6761 394.286 54.0492 394.635 54.3295C394.987 54.6098 395.43 54.75 395.964 54.75ZM407.452 52.3807V47.2727H409.156V56H407.486V54.4886H407.395C407.194 54.9545 406.872 55.3428 406.429 55.6534C405.99 55.9602 405.442 56.1136 404.787 56.1136C404.226 56.1136 403.73 55.9905 403.298 55.7443C402.87 55.4943 402.533 55.125 402.287 54.6364C402.045 54.1477 401.923 53.5436 401.923 52.8239V47.2727H403.622V52.6193C403.622 53.214 403.787 53.6875 404.116 54.0398C404.446 54.392 404.874 54.5682 405.401 54.5682C405.719 54.5682 406.035 54.4886 406.349 54.3295C406.668 54.1705 406.931 53.9299 407.139 53.608C407.351 53.286 407.455 52.8769 407.452 52.3807ZM411.439 56V47.2727H413.081V48.6591H413.172C413.331 48.1894 413.611 47.8201 414.013 47.5511C414.418 47.2784 414.876 47.142 415.388 47.142C415.494 47.142 415.619 47.1458 415.763 47.1534C415.911 47.161 416.026 47.1705 416.109 47.1818V48.8068C416.041 48.7879 415.92 48.767 415.746 48.7443C415.571 48.7178 415.397 48.7045 415.223 48.7045C414.821 48.7045 414.464 48.7898 414.149 48.9602C413.839 49.1269 413.592 49.3598 413.411 49.6591C413.229 49.9545 413.138 50.2917 413.138 50.6705V56H411.439ZM425.888 47.2727V48.6364H421.121V47.2727H425.888ZM422.399 45.1818H424.098V53.4375C424.098 53.767 424.147 54.0152 424.246 54.1818C424.344 54.3447 424.471 54.4564 424.626 54.517C424.786 54.5739 424.958 54.6023 425.143 54.6023C425.28 54.6023 425.399 54.5928 425.501 54.5739C425.604 54.5549 425.683 54.5398 425.74 54.5284L426.047 55.9318C425.948 55.9697 425.808 56.0076 425.626 56.0455C425.445 56.0871 425.217 56.1098 424.945 56.1136C424.498 56.1212 424.081 56.0417 423.695 55.875C423.308 55.7083 422.996 55.4508 422.757 55.1023C422.518 54.7538 422.399 54.3163 422.399 53.7898V45.1818ZM427.767 56V47.2727H429.409V48.6591H429.5C429.659 48.1894 429.939 47.8201 430.341 47.5511C430.746 47.2784 431.205 47.142 431.716 47.142C431.822 47.142 431.947 47.1458 432.091 47.1534C432.239 47.161 432.354 47.1705 432.438 47.1818V48.8068C432.369 48.7879 432.248 48.767 432.074 48.7443C431.9 48.7178 431.725 48.7045 431.551 48.7045C431.15 48.7045 430.792 48.7898 430.477 48.9602C430.167 49.1269 429.92 49.3598 429.739 49.6591C429.557 49.9545 429.466 50.2917 429.466 50.6705V56H427.767ZM436.369 56.1932C435.816 56.1932 435.316 56.0909 434.869 55.8864C434.422 55.678 434.068 55.3769 433.807 54.983C433.549 54.589 433.42 54.1061 433.42 53.5341C433.42 53.0417 433.515 52.6364 433.705 52.3182C433.894 52 434.15 51.7481 434.472 51.5625C434.794 51.3769 435.153 51.2367 435.551 51.142C435.949 51.0473 436.354 50.9754 436.767 50.9261C437.29 50.8655 437.714 50.8163 438.04 50.7784C438.366 50.7367 438.602 50.6705 438.75 50.5795C438.898 50.4886 438.972 50.3409 438.972 50.1364V50.0966C438.972 49.6004 438.831 49.2159 438.551 48.9432C438.275 48.6705 437.862 48.5341 437.312 48.5341C436.741 48.5341 436.29 48.661 435.96 48.9148C435.634 49.1648 435.409 49.4432 435.284 49.75L433.688 49.3864C433.877 48.8561 434.153 48.428 434.517 48.1023C434.884 47.7727 435.307 47.5341 435.784 47.3864C436.261 47.2348 436.763 47.1591 437.29 47.1591C437.638 47.1591 438.008 47.2008 438.398 47.2841C438.792 47.3636 439.159 47.5114 439.5 47.7273C439.845 47.9432 440.127 48.2519 440.347 48.6534C440.566 49.0511 440.676 49.5682 440.676 50.2045V56H439.017V54.8068H438.949C438.839 55.0265 438.674 55.2424 438.455 55.4545C438.235 55.6667 437.953 55.8428 437.608 55.983C437.263 56.1231 436.85 56.1932 436.369 56.1932ZM436.739 54.8295C437.208 54.8295 437.61 54.7367 437.943 54.5511C438.28 54.3655 438.536 54.1231 438.71 53.8239C438.888 53.5208 438.977 53.197 438.977 52.8523V51.7273C438.917 51.7879 438.799 51.8447 438.625 51.8977C438.455 51.947 438.259 51.9905 438.04 52.0284C437.82 52.0625 437.606 52.0947 437.398 52.125C437.189 52.1515 437.015 52.1742 436.875 52.1932C436.545 52.2348 436.244 52.3049 435.972 52.4034C435.703 52.5019 435.487 52.6439 435.324 52.8295C435.165 53.0114 435.085 53.2538 435.085 53.5568C435.085 53.9773 435.241 54.2955 435.551 54.5114C435.862 54.7235 436.258 54.8295 436.739 54.8295ZM450.092 47.2727L446.928 56H445.109L441.939 47.2727H443.763L445.973 53.9886H446.064L448.268 47.2727H450.092ZM455.153 56.1761C454.294 56.1761 453.553 55.9924 452.932 55.625C452.314 55.2538 451.837 54.733 451.5 54.0625C451.167 53.3883 451 52.5985 451 51.6932C451 50.7992 451.167 50.0114 451.5 49.3295C451.837 48.6477 452.307 48.1155 452.909 47.733C453.515 47.3504 454.223 47.1591 455.034 47.1591C455.527 47.1591 456.004 47.2405 456.466 47.4034C456.928 47.5663 457.343 47.822 457.71 48.1705C458.078 48.5189 458.367 48.9716 458.58 49.5284C458.792 50.0814 458.898 50.7538 458.898 51.5455V52.1477H451.96V50.875H457.233C457.233 50.428 457.142 50.0322 456.96 49.6875C456.778 49.339 456.523 49.0644 456.193 48.8636C455.867 48.6629 455.485 48.5625 455.045 48.5625C454.568 48.5625 454.152 48.6799 453.795 48.9148C453.443 49.1458 453.17 49.4489 452.977 49.8239C452.788 50.1951 452.693 50.5985 452.693 51.0341V52.0284C452.693 52.6117 452.795 53.108 453 53.517C453.208 53.9261 453.498 54.2386 453.869 54.4545C454.241 54.6667 454.674 54.7727 455.17 54.7727C455.492 54.7727 455.786 54.7273 456.051 54.6364C456.316 54.5417 456.545 54.4015 456.739 54.2159C456.932 54.0303 457.08 53.8011 457.182 53.5284L458.79 53.8182C458.661 54.2917 458.43 54.7064 458.097 55.0625C457.767 55.4148 457.352 55.6894 456.852 55.8864C456.356 56.0795 455.79 56.1761 455.153 56.1761ZM462.482 44.3636V56H460.783V44.3636H462.482ZM471.307 49.4034L469.767 49.6761C469.703 49.4792 469.6 49.2917 469.46 49.1136C469.324 48.9356 469.138 48.7898 468.903 48.6761C468.669 48.5625 468.375 48.5057 468.023 48.5057C467.542 48.5057 467.14 48.6136 466.818 48.8295C466.496 49.0417 466.335 49.3163 466.335 49.6534C466.335 49.9451 466.443 50.1799 466.659 50.358C466.875 50.536 467.223 50.6818 467.705 50.7955L469.091 51.1136C469.894 51.2992 470.492 51.5852 470.886 51.9716C471.28 52.358 471.477 52.8598 471.477 53.4773C471.477 54 471.326 54.4659 471.023 54.875C470.723 55.2803 470.305 55.5985 469.767 55.8295C469.233 56.0606 468.614 56.1761 467.909 56.1761C466.932 56.1761 466.134 55.9678 465.517 55.5511C464.9 55.1307 464.521 54.5341 464.381 53.7614L466.023 53.5114C466.125 53.9394 466.335 54.2633 466.653 54.483C466.972 54.6989 467.386 54.8068 467.898 54.8068C468.455 54.8068 468.9 54.6913 469.233 54.4602C469.566 54.2254 469.733 53.9394 469.733 53.6023C469.733 53.3295 469.631 53.1004 469.426 52.9148C469.225 52.7292 468.917 52.589 468.5 52.4943L467.023 52.1705C466.208 51.9848 465.606 51.6894 465.216 51.2841C464.83 50.8788 464.636 50.3655 464.636 49.7443C464.636 49.2292 464.78 48.7784 465.068 48.392C465.356 48.0057 465.754 47.7045 466.261 47.4886C466.769 47.2689 467.35 47.1591 468.006 47.1591C468.949 47.1591 469.691 47.3636 470.233 47.7727C470.775 48.178 471.133 48.7216 471.307 49.4034ZM3.68182 78.1932C3.12879 78.1932 2.62879 78.0909 2.18182 77.8864C1.73485 77.678 1.38068 77.3769 1.11932 76.983C0.861742 76.589 0.732955 76.1061 0.732955 75.5341C0.732955 75.0417 0.827652 74.6364 1.01705 74.3182C1.20644 74 1.46212 73.7481 1.78409 73.5625C2.10606 73.3769 2.46591 73.2367 2.86364 73.142C3.26136 73.0473 3.66667 72.9754 4.07955 72.9261C4.60227 72.8655 5.02652 72.8163 5.35227 72.7784C5.67803 72.7367 5.91477 72.6705 6.0625 72.5795C6.21023 72.4886 6.28409 72.3409 6.28409 72.1364V72.0966C6.28409 71.6004 6.14394 71.2159 5.86364 70.9432C5.58712 70.6705 5.17424 70.5341 4.625 70.5341C4.05303 70.5341 3.60227 70.661 3.27273 70.9148C2.94697 71.1648 2.72159 71.4432 2.59659 71.75L1 71.3864C1.18939 70.8561 1.46591 70.428 1.82955 70.1023C2.19697 69.7727 2.61932 69.5341 3.09659 69.3864C3.57386 69.2348 4.07576 69.1591 4.60227 69.1591C4.95076 69.1591 5.32008 69.2008 5.71023 69.2841C6.10417 69.3636 6.47159 69.5114 6.8125 69.7273C7.1572 69.9432 7.43939 70.2519 7.65909 70.6534C7.87879 71.0511 7.98864 71.5682 7.98864 72.2045V78H6.32955V76.8068H6.26136C6.15152 77.0265 5.98674 77.2424 5.76705 77.4545C5.54735 77.6667 5.26515 77.8428 4.92045 77.983C4.57576 78.1231 4.16288 78.1932 3.68182 78.1932ZM4.05114 76.8295C4.52083 76.8295 4.92235 76.7367 5.25568 76.5511C5.5928 76.3655 5.84849 76.1231 6.02273 75.8239C6.20076 75.5208 6.28977 75.197 6.28977 74.8523V73.7273C6.22917 73.7879 6.11174 73.8447 5.9375 73.8977C5.76705 73.947 5.57197 73.9905 5.35227 74.0284C5.13258 74.0625 4.91856 74.0947 4.71023 74.125C4.50189 74.1515 4.32765 74.1742 4.1875 74.1932C3.85795 74.2348 3.55682 74.3049 3.28409 74.4034C3.01515 74.5019 2.79924 74.6439 2.63636 74.8295C2.47727 75.0114 2.39773 75.2538 2.39773 75.5568C2.39773 75.9773 2.55303 76.2955 2.86364 76.5114C3.17424 76.7235 3.57008 76.8295 4.05114 76.8295ZM11.9503 72.8182V78H10.2514V69.2727H11.8821V70.6932H11.9901C12.1908 70.2311 12.5052 69.8598 12.9332 69.5795C13.3651 69.2992 13.9086 69.1591 14.5639 69.1591C15.1586 69.1591 15.6795 69.2841 16.1264 69.5341C16.5734 69.7803 16.92 70.1477 17.1662 70.6364C17.4124 71.125 17.5355 71.7292 17.5355 72.4489V78H15.8366V72.6534C15.8366 72.0208 15.6719 71.5265 15.3423 71.1705C15.0128 70.8106 14.5601 70.6307 13.9844 70.6307C13.5904 70.6307 13.2401 70.7159 12.9332 70.8864C12.6302 71.0568 12.3897 71.3068 12.2116 71.6364C12.0374 71.9621 11.9503 72.3561 11.9503 72.8182ZM23.081 78.1705C22.3764 78.1705 21.7476 77.9905 21.1946 77.6307C20.6454 77.267 20.2135 76.75 19.8991 76.0795C19.5885 75.4053 19.4332 74.5966 19.4332 73.6534C19.4332 72.7102 19.5904 71.9034 19.9048 71.233C20.223 70.5625 20.6586 70.0492 21.2116 69.6932C21.7647 69.3371 22.3916 69.1591 23.0923 69.1591C23.634 69.1591 24.0696 69.25 24.3991 69.4318C24.7325 69.6098 24.9901 69.8182 25.1719 70.0568C25.3575 70.2955 25.5014 70.5057 25.6037 70.6875H25.706V66.3636H27.4048V78H25.7457V76.642H25.6037C25.5014 76.8277 25.3537 77.0398 25.1605 77.2784C24.9711 77.517 24.7098 77.7254 24.3764 77.9034C24.0431 78.0814 23.6113 78.1705 23.081 78.1705ZM23.456 76.7216C23.9446 76.7216 24.3575 76.5928 24.6946 76.3352C25.0355 76.0739 25.2931 75.7121 25.4673 75.25C25.6454 74.7879 25.7344 74.25 25.7344 73.6364C25.7344 73.0303 25.6473 72.5 25.473 72.0455C25.2988 71.5909 25.0431 71.2367 24.706 70.983C24.3688 70.7292 23.9522 70.6023 23.456 70.6023C22.9446 70.6023 22.5185 70.7348 22.1776 71C21.8366 71.2652 21.5791 71.6269 21.4048 72.0852C21.2344 72.5436 21.1491 73.0606 21.1491 73.6364C21.1491 74.2197 21.2363 74.7443 21.4105 75.2102C21.5848 75.6761 21.8423 76.0455 22.1832 76.3182C22.5279 76.5871 22.9522 76.7216 23.456 76.7216ZM35.956 78L33.3878 69.2727H35.1435L36.8537 75.6818H36.9389L38.6548 69.2727H40.4105L42.1151 75.6534H42.2003L43.8991 69.2727H45.6548L43.0923 78H41.3594L39.5866 71.6989H39.456L37.6832 78H35.956ZM50.7628 78.1761C49.9029 78.1761 49.1624 77.9924 48.5412 77.625C47.9238 77.2538 47.4465 76.733 47.1094 76.0625C46.776 75.3883 46.6094 74.5985 46.6094 73.6932C46.6094 72.7992 46.776 72.0114 47.1094 71.3295C47.4465 70.6477 47.9162 70.1155 48.5185 69.733C49.1245 69.3504 49.8329 69.1591 50.6435 69.1591C51.1359 69.1591 51.6132 69.2405 52.0753 69.4034C52.5374 69.5663 52.9522 69.822 53.3196 70.1705C53.687 70.5189 53.9768 70.9716 54.1889 71.5284C54.401 72.0814 54.5071 72.7538 54.5071 73.5455V74.1477H47.5696V72.875H52.8423C52.8423 72.428 52.7514 72.0322 52.5696 71.6875C52.3878 71.339 52.1321 71.0644 51.8026 70.8636C51.4768 70.6629 51.0942 70.5625 50.6548 70.5625C50.1776 70.5625 49.7609 70.6799 49.4048 70.9148C49.0526 71.1458 48.7798 71.4489 48.5866 71.8239C48.3973 72.1951 48.3026 72.5985 48.3026 73.0341V74.0284C48.3026 74.6117 48.4048 75.108 48.6094 75.517C48.8177 75.9261 49.1075 76.2386 49.4787 76.4545C49.8499 76.6667 50.2836 76.7727 50.7798 76.7727C51.1018 76.7727 51.3954 76.7273 51.6605 76.6364C51.9257 76.5417 52.1548 76.4015 52.348 76.2159C52.5412 76.0303 52.6889 75.8011 52.7912 75.5284L54.3991 75.8182C54.2704 76.2917 54.0393 76.7064 53.706 77.0625C53.3764 77.4148 52.9616 77.6894 52.4616 77.8864C51.9654 78.0795 51.3991 78.1761 50.7628 78.1761ZM62.3253 66.3636V78H60.6264V66.3636H62.3253ZM68.2869 78.1761C67.4688 78.1761 66.7547 77.9886 66.1449 77.6136C65.535 77.2386 65.0616 76.714 64.7244 76.0398C64.3873 75.3655 64.2188 74.5777 64.2188 73.6761C64.2188 72.7708 64.3873 71.9792 64.7244 71.3011C65.0616 70.6231 65.535 70.0966 66.1449 69.7216C66.7547 69.3466 67.4688 69.1591 68.2869 69.1591C69.1051 69.1591 69.8191 69.3466 70.429 69.7216C71.0388 70.0966 71.5123 70.6231 71.8494 71.3011C72.1866 71.9792 72.3551 72.7708 72.3551 73.6761C72.3551 74.5777 72.1866 75.3655 71.8494 76.0398C71.5123 76.714 71.0388 77.2386 70.429 77.6136C69.8191 77.9886 69.1051 78.1761 68.2869 78.1761ZM68.2926 76.75C68.8229 76.75 69.2623 76.6098 69.6108 76.3295C69.9593 76.0492 70.2169 75.6761 70.3835 75.2102C70.554 74.7443 70.6392 74.2311 70.6392 73.6705C70.6392 73.1136 70.554 72.6023 70.3835 72.1364C70.2169 71.6667 69.9593 71.2898 69.6108 71.0057C69.2623 70.7216 68.8229 70.5795 68.2926 70.5795C67.7585 70.5795 67.3153 70.7216 66.9631 71.0057C66.6146 71.2898 66.3551 71.6667 66.1847 72.1364C66.018 72.6023 65.9347 73.1136 65.9347 73.6705C65.9347 74.2311 66.018 74.7443 66.1847 75.2102C66.3551 75.6761 66.6146 76.0492 66.9631 76.3295C67.3153 76.6098 67.7585 76.75 68.2926 76.75ZM81.4205 69.2727L78.2557 78H76.4375L73.267 69.2727H75.0909L77.3011 75.9886H77.392L79.5966 69.2727H81.4205ZM86.4815 78.1761C85.6217 78.1761 84.8812 77.9924 84.2599 77.625C83.6425 77.2538 83.1652 76.733 82.8281 76.0625C82.4948 75.3883 82.3281 74.5985 82.3281 73.6932C82.3281 72.7992 82.4948 72.0114 82.8281 71.3295C83.1652 70.6477 83.6349 70.1155 84.2372 69.733C84.8433 69.3504 85.5516 69.1591 86.3622 69.1591C86.8546 69.1591 87.3319 69.2405 87.794 69.4034C88.2562 69.5663 88.6709 69.822 89.0384 70.1705C89.4058 70.5189 89.6955 70.9716 89.9077 71.5284C90.1198 72.0814 90.2259 72.7538 90.2259 73.5455V74.1477H83.2884V72.875H88.5611C88.5611 72.428 88.4702 72.0322 88.2884 71.6875C88.1065 71.339 87.8509 71.0644 87.5213 70.8636C87.1955 70.6629 86.813 70.5625 86.3736 70.5625C85.8963 70.5625 85.4796 70.6799 85.1236 70.9148C84.7713 71.1458 84.4986 71.4489 84.3054 71.8239C84.116 72.1951 84.0213 72.5985 84.0213 73.0341V74.0284C84.0213 74.6117 84.1236 75.108 84.3281 75.517C84.5365 75.9261 84.8262 76.2386 85.1974 76.4545C85.5687 76.6667 86.0024 76.7727 86.4986 76.7727C86.8205 76.7727 87.1141 76.7273 87.3793 76.6364C87.6444 76.5417 87.8736 76.4015 88.0668 76.2159C88.2599 76.0303 88.4077 75.8011 88.5099 75.5284L90.1179 75.8182C89.9891 76.2917 89.758 76.7064 89.4247 77.0625C89.0952 77.4148 88.6804 77.6894 88.1804 77.8864C87.6842 78.0795 87.1179 78.1761 86.4815 78.1761ZM96.3452 78V69.2727H98.044V78H96.3452ZM97.2031 67.9261C96.9077 67.9261 96.6539 67.8277 96.4418 67.6307C96.2334 67.4299 96.1293 67.1913 96.1293 66.9148C96.1293 66.6345 96.2334 66.3958 96.4418 66.1989C96.6539 65.9981 96.9077 65.8977 97.2031 65.8977C97.4986 65.8977 97.7505 65.9981 97.9588 66.1989C98.1709 66.3958 98.277 66.6345 98.277 66.9148C98.277 67.1913 98.1709 67.4299 97.9588 67.6307C97.7505 67.8277 97.4986 67.9261 97.2031 67.9261ZM104.403 69.2727V70.6364H99.6364V69.2727H104.403ZM100.915 67.1818H102.614V75.4375C102.614 75.767 102.663 76.0152 102.761 76.1818C102.86 76.3447 102.987 76.4564 103.142 76.517C103.301 76.5739 103.473 76.6023 103.659 76.6023C103.795 76.6023 103.915 76.5928 104.017 76.5739C104.119 76.5549 104.199 76.5398 104.256 76.5284L104.562 77.9318C104.464 77.9697 104.324 78.0076 104.142 78.0455C103.96 78.0871 103.733 78.1098 103.46 78.1136C103.013 78.1212 102.597 78.0417 102.21 77.875C101.824 77.7083 101.511 77.4508 101.273 77.1023C101.034 76.7538 100.915 76.3163 100.915 75.7898V67.1818ZM108.425 66.3636L108.277 74.6534H106.703L106.555 66.3636H108.425ZM107.493 78.108C107.179 78.108 106.91 77.9981 106.686 77.7784C106.463 77.5549 106.353 77.286 106.357 76.9716C106.353 76.661 106.463 76.3958 106.686 76.1761C106.91 75.9527 107.179 75.8409 107.493 75.8409C107.8 75.8409 108.065 75.9527 108.288 76.1761C108.512 76.3958 108.625 76.661 108.629 76.9716C108.625 77.1799 108.571 77.3712 108.464 77.5455C108.362 77.7159 108.226 77.8523 108.055 77.9545C107.885 78.0568 107.697 78.108 107.493 78.108ZM124.749 66.3636V78H123.135L117.22 69.4659H117.112V78H115.357V66.3636H116.982L122.902 74.9091H123.01V66.3636H124.749ZM130.849 78.1761C130.031 78.1761 129.317 77.9886 128.707 77.6136C128.098 77.2386 127.624 76.714 127.287 76.0398C126.95 75.3655 126.781 74.5777 126.781 73.6761C126.781 72.7708 126.95 71.9792 127.287 71.3011C127.624 70.6231 128.098 70.0966 128.707 69.7216C129.317 69.3466 130.031 69.1591 130.849 69.1591C131.668 69.1591 132.382 69.3466 132.991 69.7216C133.601 70.0966 134.075 70.6231 134.412 71.3011C134.749 71.9792 134.918 72.7708 134.918 73.6761C134.918 74.5777 134.749 75.3655 134.412 76.0398C134.075 76.714 133.601 77.2386 132.991 77.6136C132.382 77.9886 131.668 78.1761 130.849 78.1761ZM130.855 76.75C131.385 76.75 131.825 76.6098 132.173 76.3295C132.522 76.0492 132.779 75.6761 132.946 75.2102C133.116 74.7443 133.202 74.2311 133.202 73.6705C133.202 73.1136 133.116 72.6023 132.946 72.1364C132.779 71.6667 132.522 71.2898 132.173 71.0057C131.825 70.7216 131.385 70.5795 130.855 70.5795C130.321 70.5795 129.878 70.7216 129.526 71.0057C129.177 71.2898 128.918 71.6667 128.747 72.1364C128.58 72.6023 128.497 73.1136 128.497 73.6705C128.497 74.2311 128.58 74.7443 128.747 75.2102C128.918 75.6761 129.177 76.0492 129.526 76.3295C129.878 76.6098 130.321 76.75 130.855 76.75ZM144.724 78.1761C143.88 78.1761 143.152 77.9848 142.543 77.6023C141.937 77.2159 141.471 76.6837 141.145 76.0057C140.819 75.3277 140.656 74.5511 140.656 73.6761C140.656 72.7898 140.823 72.0076 141.156 71.3295C141.49 70.6477 141.959 70.1155 142.565 69.733C143.171 69.3504 143.885 69.1591 144.707 69.1591C145.37 69.1591 145.961 69.2822 146.48 69.5284C146.999 69.7708 147.418 70.1117 147.736 70.5511C148.058 70.9905 148.249 71.5038 148.31 72.0909H146.656C146.565 71.6818 146.357 71.3295 146.031 71.0341C145.709 70.7386 145.277 70.5909 144.736 70.5909C144.262 70.5909 143.848 70.7159 143.491 70.9659C143.139 71.2121 142.865 71.5644 142.668 72.0227C142.471 72.4773 142.372 73.0152 142.372 73.6364C142.372 74.2727 142.469 74.822 142.662 75.2841C142.855 75.7462 143.128 76.1042 143.48 76.358C143.836 76.6117 144.255 76.7386 144.736 76.7386C145.058 76.7386 145.349 76.6799 145.611 76.5625C145.876 76.4413 146.098 76.2689 146.276 76.0455C146.457 75.822 146.584 75.553 146.656 75.2386H148.31C148.249 75.803 148.065 76.3068 147.759 76.75C147.452 77.1932 147.041 77.5417 146.526 77.7955C146.014 78.0492 145.414 78.1761 144.724 78.1761ZM153.803 78.1761C152.984 78.1761 152.27 77.9886 151.661 77.6136C151.051 77.2386 150.577 76.714 150.24 76.0398C149.903 75.3655 149.734 74.5777 149.734 73.6761C149.734 72.7708 149.903 71.9792 150.24 71.3011C150.577 70.6231 151.051 70.0966 151.661 69.7216C152.27 69.3466 152.984 69.1591 153.803 69.1591C154.621 69.1591 155.335 69.3466 155.945 69.7216C156.554 70.0966 157.028 70.6231 157.365 71.3011C157.702 71.9792 157.871 72.7708 157.871 73.6761C157.871 74.5777 157.702 75.3655 157.365 76.0398C157.028 76.714 156.554 77.2386 155.945 77.6136C155.335 77.9886 154.621 78.1761 153.803 78.1761ZM153.808 76.75C154.339 76.75 154.778 76.6098 155.126 76.3295C155.475 76.0492 155.732 75.6761 155.899 75.2102C156.07 74.7443 156.155 74.2311 156.155 73.6705C156.155 73.1136 156.07 72.6023 155.899 72.1364C155.732 71.6667 155.475 71.2898 155.126 71.0057C154.778 70.7216 154.339 70.5795 153.808 70.5795C153.274 70.5795 152.831 70.7216 152.479 71.0057C152.13 71.2898 151.871 71.6667 151.7 72.1364C151.534 72.6023 151.45 73.1136 151.45 73.6705C151.45 74.2311 151.534 74.7443 151.7 75.2102C151.871 75.6761 152.13 76.0492 152.479 76.3295C152.831 76.6098 153.274 76.75 153.808 76.75ZM159.767 78V69.2727H161.398V70.6932H161.506C161.688 70.2121 161.985 69.8371 162.398 69.5682C162.811 69.2955 163.305 69.1591 163.881 69.1591C164.464 69.1591 164.953 69.2955 165.347 69.5682C165.744 69.8409 166.038 70.2159 166.227 70.6932H166.318C166.527 70.2273 166.858 69.8561 167.312 69.5795C167.767 69.2992 168.309 69.1591 168.938 69.1591C169.729 69.1591 170.375 69.4072 170.875 69.9034C171.379 70.3996 171.631 71.1477 171.631 72.1477V78H169.932V72.3068C169.932 71.7159 169.771 71.2879 169.449 71.0227C169.127 70.7576 168.742 70.625 168.295 70.625C167.742 70.625 167.312 70.7955 167.006 71.1364C166.699 71.4735 166.545 71.9072 166.545 72.4375V78H164.852V72.1989C164.852 71.7254 164.705 71.3447 164.409 71.0568C164.114 70.7689 163.729 70.625 163.256 70.625C162.934 70.625 162.636 70.7102 162.364 70.8807C162.095 71.0473 161.877 71.2803 161.71 71.5795C161.547 71.8788 161.466 72.2254 161.466 72.6193V78H159.767ZM173.908 81.2727V69.2727H175.567V70.6875H175.709C175.807 70.5057 175.949 70.2955 176.135 70.0568C176.321 69.8182 176.578 69.6098 176.908 69.4318C177.237 69.25 177.673 69.1591 178.214 69.1591C178.919 69.1591 179.548 69.3371 180.101 69.6932C180.654 70.0492 181.088 70.5625 181.402 71.233C181.72 71.9034 181.879 72.7102 181.879 73.6534C181.879 74.5966 181.722 75.4053 181.408 76.0795C181.093 76.75 180.661 77.267 180.112 77.6307C179.563 77.9905 178.936 78.1705 178.232 78.1705C177.701 78.1705 177.268 78.0814 176.93 77.9034C176.597 77.7254 176.336 77.517 176.146 77.2784C175.957 77.0398 175.811 76.8277 175.709 76.642H175.607V81.2727H173.908ZM175.572 73.6364C175.572 74.25 175.661 74.7879 175.839 75.25C176.018 75.7121 176.275 76.0739 176.612 76.3352C176.949 76.5928 177.362 76.7216 177.851 76.7216C178.358 76.7216 178.783 76.5871 179.124 76.3182C179.464 76.0455 179.722 75.6761 179.896 75.2102C180.074 74.7443 180.163 74.2197 180.163 73.6364C180.163 73.0606 180.076 72.5436 179.902 72.0852C179.732 71.6269 179.474 71.2652 179.129 71C178.788 70.7348 178.362 70.6023 177.851 70.6023C177.358 70.6023 176.942 70.7292 176.601 70.983C176.264 71.2367 176.008 71.5909 175.834 72.0455C175.66 72.5 175.572 73.0303 175.572 73.6364ZM185.482 66.3636V78H183.783V66.3636H185.482ZM190.307 78.1932C189.754 78.1932 189.254 78.0909 188.807 77.8864C188.36 77.678 188.006 77.3769 187.744 76.983C187.487 76.589 187.358 76.1061 187.358 75.5341C187.358 75.0417 187.453 74.6364 187.642 74.3182C187.831 74 188.087 73.7481 188.409 73.5625C188.731 73.3769 189.091 73.2367 189.489 73.142C189.886 73.0473 190.292 72.9754 190.705 72.9261C191.227 72.8655 191.652 72.8163 191.977 72.7784C192.303 72.7367 192.54 72.6705 192.688 72.5795C192.835 72.4886 192.909 72.3409 192.909 72.1364V72.0966C192.909 71.6004 192.769 71.2159 192.489 70.9432C192.212 70.6705 191.799 70.5341 191.25 70.5341C190.678 70.5341 190.227 70.661 189.898 70.9148C189.572 71.1648 189.347 71.4432 189.222 71.75L187.625 71.3864C187.814 70.8561 188.091 70.428 188.455 70.1023C188.822 69.7727 189.244 69.5341 189.722 69.3864C190.199 69.2348 190.701 69.1591 191.227 69.1591C191.576 69.1591 191.945 69.2008 192.335 69.2841C192.729 69.3636 193.097 69.5114 193.438 69.7273C193.782 69.9432 194.064 70.2519 194.284 70.6534C194.504 71.0511 194.614 71.5682 194.614 72.2045V78H192.955V76.8068H192.886C192.777 77.0265 192.612 77.2424 192.392 77.4545C192.172 77.6667 191.89 77.8428 191.545 77.983C191.201 78.1231 190.788 78.1932 190.307 78.1932ZM190.676 76.8295C191.146 76.8295 191.547 76.7367 191.881 76.5511C192.218 76.3655 192.473 76.1231 192.648 75.8239C192.826 75.5208 192.915 75.197 192.915 74.8523V73.7273C192.854 73.7879 192.737 73.8447 192.562 73.8977C192.392 73.947 192.197 73.9905 191.977 74.0284C191.758 74.0625 191.544 74.0947 191.335 74.125C191.127 74.1515 190.953 74.1742 190.812 74.1932C190.483 74.2348 190.182 74.3049 189.909 74.4034C189.64 74.5019 189.424 74.6439 189.261 74.8295C189.102 75.0114 189.023 75.2538 189.023 75.5568C189.023 75.9773 189.178 76.2955 189.489 76.5114C189.799 76.7235 190.195 76.8295 190.676 76.8295ZM196.876 78V69.2727H198.575V78H196.876ZM197.734 67.9261C197.439 67.9261 197.185 67.8277 196.973 67.6307C196.765 67.4299 196.661 67.1913 196.661 66.9148C196.661 66.6345 196.765 66.3958 196.973 66.1989C197.185 65.9981 197.439 65.8977 197.734 65.8977C198.03 65.8977 198.282 65.9981 198.49 66.1989C198.702 66.3958 198.808 66.6345 198.808 66.9148C198.808 67.1913 198.702 67.4299 198.49 67.6307C198.282 67.8277 198.03 67.9261 197.734 67.9261ZM202.56 72.8182V78H200.861V69.2727H202.491V70.6932H202.599C202.8 70.2311 203.115 69.8598 203.543 69.5795C203.974 69.2992 204.518 69.1591 205.173 69.1591C205.768 69.1591 206.289 69.2841 206.736 69.5341C207.183 69.7803 207.529 70.1477 207.776 70.6364C208.022 71.125 208.145 71.7292 208.145 72.4489V78H206.446V72.6534C206.446 72.0208 206.281 71.5265 205.952 71.1705C205.622 70.8106 205.17 70.6307 204.594 70.6307C204.2 70.6307 203.849 70.7159 203.543 70.8864C203.24 71.0568 202.999 71.3068 202.821 71.6364C202.647 71.9621 202.56 72.3561 202.56 72.8182ZM214.497 69.2727V70.6364H209.73V69.2727H214.497ZM211.009 67.1818H212.707V75.4375C212.707 75.767 212.757 76.0152 212.855 76.1818C212.954 76.3447 213.08 76.4564 213.236 76.517C213.395 76.5739 213.567 76.6023 213.753 76.6023C213.889 76.6023 214.009 76.5928 214.111 76.5739C214.213 76.5549 214.293 76.5398 214.349 76.5284L214.656 77.9318C214.558 77.9697 214.418 78.0076 214.236 78.0455C214.054 78.0871 213.827 78.1098 213.554 78.1136C213.107 78.1212 212.69 78.0417 212.304 77.875C211.918 77.7083 211.605 77.4508 211.366 77.1023C211.128 76.7538 211.009 76.3163 211.009 75.7898V67.1818ZM222.776 71.4034L221.236 71.6761C221.171 71.4792 221.069 71.2917 220.929 71.1136C220.793 70.9356 220.607 70.7898 220.372 70.6761C220.137 70.5625 219.844 70.5057 219.491 70.5057C219.01 70.5057 218.609 70.6136 218.287 70.8295C217.965 71.0417 217.804 71.3163 217.804 71.6534C217.804 71.9451 217.912 72.1799 218.128 72.358C218.344 72.536 218.692 72.6818 219.173 72.7955L220.56 73.1136C221.363 73.2992 221.961 73.5852 222.355 73.9716C222.749 74.358 222.946 74.8598 222.946 75.4773C222.946 76 222.795 76.4659 222.491 76.875C222.192 77.2803 221.774 77.5985 221.236 77.8295C220.702 78.0606 220.082 78.1761 219.378 78.1761C218.401 78.1761 217.603 77.9678 216.986 77.5511C216.368 77.1307 215.99 76.5341 215.849 75.7614L217.491 75.5114C217.594 75.9394 217.804 76.2633 218.122 76.483C218.44 76.6989 218.855 76.8068 219.366 76.8068C219.923 76.8068 220.368 76.6913 220.702 76.4602C221.035 76.2254 221.202 75.9394 221.202 75.6023C221.202 75.3295 221.099 75.1004 220.895 74.9148C220.694 74.7292 220.385 74.589 219.969 74.4943L218.491 74.1705C217.677 73.9848 217.075 73.6894 216.685 73.2841C216.298 72.8788 216.105 72.3655 216.105 71.7443C216.105 71.2292 216.249 70.7784 216.537 70.392C216.825 70.0057 217.223 69.7045 217.73 69.4886C218.238 69.2689 218.819 69.1591 219.474 69.1591C220.418 69.1591 221.16 69.3636 221.702 69.7727C222.243 70.178 222.601 70.7216 222.776 71.4034ZM227.024 76.4091L226.939 77.0284C226.882 77.483 226.786 77.9564 226.649 78.4489C226.517 78.9451 226.378 79.4053 226.234 79.8295C226.094 80.2538 225.979 80.5909 225.888 80.8409H224.683C224.732 80.6061 224.801 80.2879 224.888 79.8864C224.975 79.4886 225.06 79.0436 225.143 78.5511C225.227 78.0587 225.289 77.5568 225.331 77.0455L225.388 76.4091H227.024ZM236.01 78.1932C235.457 78.1932 234.957 78.0909 234.51 77.8864C234.063 77.678 233.709 77.3769 233.447 76.983C233.19 76.589 233.061 76.1061 233.061 75.5341C233.061 75.0417 233.156 74.6364 233.345 74.3182C233.535 74 233.79 73.7481 234.112 73.5625C234.434 73.3769 234.794 73.2367 235.192 73.142C235.589 73.0473 235.995 72.9754 236.408 72.9261C236.93 72.8655 237.355 72.8163 237.68 72.7784C238.006 72.7367 238.243 72.6705 238.391 72.5795C238.538 72.4886 238.612 72.3409 238.612 72.1364V72.0966C238.612 71.6004 238.472 71.2159 238.192 70.9432C237.915 70.6705 237.502 70.5341 236.953 70.5341C236.381 70.5341 235.93 70.661 235.601 70.9148C235.275 71.1648 235.05 71.4432 234.925 71.75L233.328 71.3864C233.518 70.8561 233.794 70.428 234.158 70.1023C234.525 69.7727 234.947 69.5341 235.425 69.3864C235.902 69.2348 236.404 69.1591 236.93 69.1591C237.279 69.1591 237.648 69.2008 238.038 69.2841C238.432 69.3636 238.8 69.5114 239.141 69.7273C239.485 69.9432 239.768 70.2519 239.987 70.6534C240.207 71.0511 240.317 71.5682 240.317 72.2045V78H238.658V76.8068H238.589C238.48 77.0265 238.315 77.2424 238.095 77.4545C237.875 77.6667 237.593 77.8428 237.249 77.983C236.904 78.1231 236.491 78.1932 236.01 78.1932ZM236.379 76.8295C236.849 76.8295 237.25 76.7367 237.584 76.5511C237.921 76.3655 238.177 76.1231 238.351 75.8239C238.529 75.5208 238.618 75.197 238.618 74.8523V73.7273C238.557 73.7879 238.44 73.8447 238.266 73.8977C238.095 73.947 237.9 73.9905 237.68 74.0284C237.461 74.0625 237.247 74.0947 237.038 74.125C236.83 74.1515 236.656 74.1742 236.516 74.1932C236.186 74.2348 235.885 74.3049 235.612 74.4034C235.343 74.5019 235.127 74.6439 234.964 74.8295C234.805 75.0114 234.726 75.2538 234.726 75.5568C234.726 75.9773 234.881 76.2955 235.192 76.5114C235.502 76.7235 235.898 76.8295 236.379 76.8295ZM242.716 78V66.3636H244.415V70.6875H244.517C244.616 70.5057 244.758 70.2955 244.943 70.0568C245.129 69.8182 245.386 69.6098 245.716 69.4318C246.045 69.25 246.481 69.1591 247.023 69.1591C247.727 69.1591 248.356 69.3371 248.909 69.6932C249.462 70.0492 249.896 70.5625 250.21 71.233C250.528 71.9034 250.688 72.7102 250.688 73.6534C250.688 74.5966 250.53 75.4053 250.216 76.0795C249.902 76.75 249.47 77.267 248.92 77.6307C248.371 77.9905 247.744 78.1705 247.04 78.1705C246.509 78.1705 246.076 78.0814 245.739 77.9034C245.405 77.7254 245.144 77.517 244.955 77.2784C244.765 77.0398 244.619 76.8277 244.517 76.642H244.375V78H242.716ZM244.381 73.6364C244.381 74.25 244.47 74.7879 244.648 75.25C244.826 75.7121 245.083 76.0739 245.42 76.3352C245.758 76.5928 246.17 76.7216 246.659 76.7216C247.167 76.7216 247.591 76.5871 247.932 76.3182C248.273 76.0455 248.53 75.6761 248.705 75.2102C248.883 74.7443 248.972 74.2197 248.972 73.6364C248.972 73.0606 248.884 72.5436 248.71 72.0852C248.54 71.6269 248.282 71.2652 247.938 71C247.597 70.7348 247.17 70.6023 246.659 70.6023C246.167 70.6023 245.75 70.7292 245.409 70.983C245.072 71.2367 244.816 71.5909 244.642 72.0455C244.468 72.5 244.381 73.0303 244.381 73.6364ZM259.135 71.4034L257.595 71.6761C257.531 71.4792 257.429 71.2917 257.288 71.1136C257.152 70.9356 256.966 70.7898 256.732 70.6761C256.497 70.5625 256.203 70.5057 255.851 70.5057C255.37 70.5057 254.968 70.6136 254.646 70.8295C254.324 71.0417 254.163 71.3163 254.163 71.6534C254.163 71.9451 254.271 72.1799 254.487 72.358C254.703 72.536 255.052 72.6818 255.533 72.7955L256.919 73.1136C257.722 73.2992 258.321 73.5852 258.714 73.9716C259.108 74.358 259.305 74.8598 259.305 75.4773C259.305 76 259.154 76.4659 258.851 76.875C258.552 77.2803 258.133 77.5985 257.595 77.8295C257.061 78.0606 256.442 78.1761 255.737 78.1761C254.76 78.1761 253.963 77.9678 253.345 77.5511C252.728 77.1307 252.349 76.5341 252.209 75.7614L253.851 75.5114C253.953 75.9394 254.163 76.2633 254.482 76.483C254.8 76.6989 255.214 76.8068 255.726 76.8068C256.283 76.8068 256.728 76.6913 257.061 76.4602C257.394 76.2254 257.561 75.9394 257.561 75.6023C257.561 75.3295 257.459 75.1004 257.254 74.9148C257.054 74.7292 256.745 74.589 256.328 74.4943L254.851 74.1705C254.036 73.9848 253.434 73.6894 253.044 73.2841C252.658 72.8788 252.464 72.3655 252.464 71.7443C252.464 71.2292 252.608 70.7784 252.896 70.392C253.184 70.0057 253.582 69.7045 254.089 69.4886C254.597 69.2689 255.179 69.1591 255.834 69.1591C256.777 69.1591 257.519 69.3636 258.061 69.7727C258.603 70.178 258.961 70.7216 259.135 71.4034ZM264.849 78.1761C264.031 78.1761 263.317 77.9886 262.707 77.6136C262.098 77.2386 261.624 76.714 261.287 76.0398C260.95 75.3655 260.781 74.5777 260.781 73.6761C260.781 72.7708 260.95 71.9792 261.287 71.3011C261.624 70.6231 262.098 70.0966 262.707 69.7216C263.317 69.3466 264.031 69.1591 264.849 69.1591C265.668 69.1591 266.382 69.3466 266.991 69.7216C267.601 70.0966 268.075 70.6231 268.412 71.3011C268.749 71.9792 268.918 72.7708 268.918 73.6761C268.918 74.5777 268.749 75.3655 268.412 76.0398C268.075 76.714 267.601 77.2386 266.991 77.6136C266.382 77.9886 265.668 78.1761 264.849 78.1761ZM264.855 76.75C265.385 76.75 265.825 76.6098 266.173 76.3295C266.522 76.0492 266.779 75.6761 266.946 75.2102C267.116 74.7443 267.202 74.2311 267.202 73.6705C267.202 73.1136 267.116 72.6023 266.946 72.1364C266.779 71.6667 266.522 71.2898 266.173 71.0057C265.825 70.7216 265.385 70.5795 264.855 70.5795C264.321 70.5795 263.878 70.7216 263.526 71.0057C263.177 71.2898 262.918 71.6667 262.747 72.1364C262.58 72.6023 262.497 73.1136 262.497 73.6705C262.497 74.2311 262.58 74.7443 262.747 75.2102C262.918 75.6761 263.177 76.0492 263.526 76.3295C263.878 76.6098 264.321 76.75 264.855 76.75ZM272.513 66.3636V78H270.814V66.3636H272.513ZM280.327 74.3807V69.2727H282.031V78H280.361V76.4886H280.27C280.069 76.9545 279.747 77.3428 279.304 77.6534C278.865 77.9602 278.317 78.1136 277.662 78.1136C277.101 78.1136 276.605 77.9905 276.173 77.7443C275.745 77.4943 275.408 77.125 275.162 76.6364C274.92 76.1477 274.798 75.5436 274.798 74.8239V69.2727H276.497V74.6193C276.497 75.214 276.662 75.6875 276.991 76.0398C277.321 76.392 277.749 76.5682 278.276 76.5682C278.594 76.5682 278.91 76.4886 279.224 76.3295C279.543 76.1705 279.806 75.9299 280.014 75.608C280.226 75.286 280.33 74.8769 280.327 74.3807ZM288.388 69.2727V70.6364H283.621V69.2727H288.388ZM284.899 67.1818H286.598V75.4375C286.598 75.767 286.647 76.0152 286.746 76.1818C286.844 76.3447 286.971 76.4564 287.126 76.517C287.286 76.5739 287.458 76.6023 287.643 76.6023C287.78 76.6023 287.899 76.5928 288.001 76.5739C288.104 76.5549 288.183 76.5398 288.24 76.5284L288.547 77.9318C288.448 77.9697 288.308 78.0076 288.126 78.0455C287.945 78.0871 287.717 78.1098 287.445 78.1136C286.998 78.1212 286.581 78.0417 286.195 77.875C285.808 77.7083 285.496 77.4508 285.257 77.1023C285.018 76.7538 284.899 76.3163 284.899 75.7898V67.1818ZM293.935 78.1761C293.075 78.1761 292.334 77.9924 291.713 77.625C291.096 77.2538 290.618 76.733 290.281 76.0625C289.948 75.3883 289.781 74.5985 289.781 73.6932C289.781 72.7992 289.948 72.0114 290.281 71.3295C290.618 70.6477 291.088 70.1155 291.69 69.733C292.296 69.3504 293.005 69.1591 293.815 69.1591C294.308 69.1591 294.785 69.2405 295.247 69.4034C295.709 69.5663 296.124 69.822 296.491 70.1705C296.859 70.5189 297.149 70.9716 297.361 71.5284C297.573 72.0814 297.679 72.7538 297.679 73.5455V74.1477H290.741V72.875H296.014C296.014 72.428 295.923 72.0322 295.741 71.6875C295.56 71.339 295.304 71.0644 294.974 70.8636C294.649 70.6629 294.266 70.5625 293.827 70.5625C293.349 70.5625 292.933 70.6799 292.577 70.9148C292.224 71.1458 291.952 71.4489 291.759 71.8239C291.569 72.1951 291.474 72.5985 291.474 73.0341V74.0284C291.474 74.6117 291.577 75.108 291.781 75.517C291.99 75.9261 292.279 76.2386 292.651 76.4545C293.022 76.6667 293.455 76.7727 293.952 76.7727C294.274 76.7727 294.567 76.7273 294.832 76.6364C295.098 76.5417 295.327 76.4015 295.52 76.2159C295.713 76.0303 295.861 75.8011 295.963 75.5284L297.571 75.8182C297.442 76.2917 297.211 76.7064 296.878 77.0625C296.548 77.4148 296.134 77.6894 295.634 77.8864C295.137 78.0795 294.571 78.1761 293.935 78.1761ZM301.263 66.3636V78H299.564V66.3636H301.263ZM304.622 81.2727C304.368 81.2727 304.137 81.2519 303.929 81.2102C303.721 81.1723 303.565 81.1307 303.463 81.0852L303.872 79.6932C304.183 79.7765 304.459 79.8125 304.702 79.8011C304.944 79.7898 305.158 79.6989 305.344 79.5284C305.533 79.358 305.7 79.0795 305.844 78.6932L306.054 78.1136L302.861 69.2727H304.679L306.889 76.0455H306.98L309.19 69.2727H311.014L307.418 79.1648C307.251 79.6193 307.039 80.0038 306.781 80.3182C306.524 80.6364 306.217 80.875 305.861 81.0341C305.505 81.1932 305.092 81.2727 304.622 81.2727ZM316.845 81.2727V69.2727H318.504V70.6875H318.646C318.745 70.5057 318.887 70.2955 319.072 70.0568C319.258 69.8182 319.516 69.6098 319.845 69.4318C320.175 69.25 320.61 69.1591 321.152 69.1591C321.857 69.1591 322.485 69.3371 323.038 69.6932C323.591 70.0492 324.025 70.5625 324.339 71.233C324.658 71.9034 324.817 72.7102 324.817 73.6534C324.817 74.5966 324.66 75.4053 324.345 76.0795C324.031 76.75 323.599 77.267 323.05 77.6307C322.5 77.9905 321.874 78.1705 321.169 78.1705C320.639 78.1705 320.205 78.0814 319.868 77.9034C319.535 77.7254 319.273 77.517 319.084 77.2784C318.894 77.0398 318.749 76.8277 318.646 76.642H318.544V81.2727H316.845ZM318.51 73.6364C318.51 74.25 318.599 74.7879 318.777 75.25C318.955 75.7121 319.213 76.0739 319.55 76.3352C319.887 76.5928 320.3 76.7216 320.788 76.7216C321.296 76.7216 321.72 76.5871 322.061 76.3182C322.402 76.0455 322.66 75.6761 322.834 75.2102C323.012 74.7443 323.101 74.2197 323.101 73.6364C323.101 73.0606 323.014 72.5436 322.839 72.0852C322.669 71.6269 322.411 71.2652 322.067 71C321.726 70.7348 321.3 70.6023 320.788 70.6023C320.296 70.6023 319.879 70.7292 319.538 70.983C319.201 71.2367 318.946 71.5909 318.771 72.0455C318.597 72.5 318.51 73.0303 318.51 73.6364ZM330.482 78.1761C329.622 78.1761 328.881 77.9924 328.26 77.625C327.643 77.2538 327.165 76.733 326.828 76.0625C326.495 75.3883 326.328 74.5985 326.328 73.6932C326.328 72.7992 326.495 72.0114 326.828 71.3295C327.165 70.6477 327.635 70.1155 328.237 69.733C328.843 69.3504 329.552 69.1591 330.362 69.1591C330.855 69.1591 331.332 69.2405 331.794 69.4034C332.256 69.5663 332.671 69.822 333.038 70.1705C333.406 70.5189 333.696 70.9716 333.908 71.5284C334.12 72.0814 334.226 72.7538 334.226 73.5455V74.1477H327.288V72.875H332.561C332.561 72.428 332.47 72.0322 332.288 71.6875C332.107 71.339 331.851 71.0644 331.521 70.8636C331.196 70.6629 330.813 70.5625 330.374 70.5625C329.896 70.5625 329.48 70.6799 329.124 70.9148C328.771 71.1458 328.499 71.4489 328.305 71.8239C328.116 72.1951 328.021 72.5985 328.021 73.0341V74.0284C328.021 74.6117 328.124 75.108 328.328 75.517C328.536 75.9261 328.826 76.2386 329.197 76.4545C329.569 76.6667 330.002 76.7727 330.499 76.7727C330.821 76.7727 331.114 76.7273 331.379 76.6364C331.644 76.5417 331.874 76.4015 332.067 76.2159C332.26 76.0303 332.408 75.8011 332.51 75.5284L334.118 75.8182C333.989 76.2917 333.758 76.7064 333.425 77.0625C333.095 77.4148 332.68 77.6894 332.18 77.8864C331.684 78.0795 331.118 78.1761 330.482 78.1761ZM336.111 78V69.2727H337.753V70.6591H337.844C338.003 70.1894 338.283 69.8201 338.685 69.5511C339.09 69.2784 339.548 69.142 340.06 69.142C340.166 69.142 340.291 69.1458 340.435 69.1534C340.582 69.161 340.698 69.1705 340.781 69.1818V70.8068C340.713 70.7879 340.592 70.767 340.418 70.7443C340.243 70.7178 340.069 70.7045 339.895 70.7045C339.493 70.7045 339.135 70.7898 338.821 70.9602C338.51 71.1269 338.264 71.3598 338.082 71.6591C337.901 71.9545 337.81 72.2917 337.81 72.6705V78H336.111ZM346.92 69.2727V70.6364H341.989V69.2727H346.92ZM343.341 78V68.2614C343.341 67.7159 343.46 67.2633 343.699 66.9034C343.938 66.5398 344.254 66.2689 344.648 66.0909C345.042 65.9091 345.47 65.8182 345.932 65.8182C346.273 65.8182 346.564 65.8466 346.807 65.9034C347.049 65.9564 347.229 66.0057 347.347 66.0511L346.949 67.4261C346.869 67.4034 346.767 67.3769 346.642 67.3466C346.517 67.3125 346.366 67.2955 346.188 67.2955C345.775 67.2955 345.479 67.3977 345.301 67.6023C345.127 67.8068 345.04 68.1023 345.04 68.4886V78H343.341ZM352.091 78.1761C351.231 78.1761 350.491 77.9924 349.869 77.625C349.252 77.2538 348.775 76.733 348.438 76.0625C348.104 75.3883 347.938 74.5985 347.938 73.6932C347.938 72.7992 348.104 72.0114 348.438 71.3295C348.775 70.6477 349.244 70.1155 349.847 69.733C350.453 69.3504 351.161 69.1591 351.972 69.1591C352.464 69.1591 352.941 69.2405 353.403 69.4034C353.866 69.5663 354.28 69.822 354.648 70.1705C355.015 70.5189 355.305 70.9716 355.517 71.5284C355.729 72.0814 355.835 72.7538 355.835 73.5455V74.1477H348.898V72.875H354.17C354.17 72.428 354.08 72.0322 353.898 71.6875C353.716 71.339 353.46 71.0644 353.131 70.8636C352.805 70.6629 352.422 70.5625 351.983 70.5625C351.506 70.5625 351.089 70.6799 350.733 70.9148C350.381 71.1458 350.108 71.4489 349.915 71.8239C349.725 72.1951 349.631 72.5985 349.631 73.0341V74.0284C349.631 74.6117 349.733 75.108 349.938 75.517C350.146 75.9261 350.436 76.2386 350.807 76.4545C351.178 76.6667 351.612 76.7727 352.108 76.7727C352.43 76.7727 352.723 76.7273 352.989 76.6364C353.254 76.5417 353.483 76.4015 353.676 76.2159C353.869 76.0303 354.017 75.8011 354.119 75.5284L355.727 75.8182C355.598 76.2917 355.367 76.7064 355.034 77.0625C354.705 77.4148 354.29 77.6894 353.79 77.8864C353.294 78.0795 352.727 78.1761 352.091 78.1761ZM361.396 78.1761C360.552 78.1761 359.824 77.9848 359.214 77.6023C358.608 77.2159 358.143 76.6837 357.817 76.0057C357.491 75.3277 357.328 74.5511 357.328 73.6761C357.328 72.7898 357.495 72.0076 357.828 71.3295C358.161 70.6477 358.631 70.1155 359.237 69.733C359.843 69.3504 360.557 69.1591 361.379 69.1591C362.042 69.1591 362.633 69.2822 363.152 69.5284C363.671 69.7708 364.089 70.1117 364.408 70.5511C364.73 70.9905 364.921 71.5038 364.982 72.0909H363.328C363.237 71.6818 363.029 71.3295 362.703 71.0341C362.381 70.7386 361.949 70.5909 361.408 70.5909C360.934 70.5909 360.519 70.7159 360.163 70.9659C359.811 71.2121 359.536 71.5644 359.339 72.0227C359.143 72.4773 359.044 73.0152 359.044 73.6364C359.044 74.2727 359.141 74.822 359.334 75.2841C359.527 75.7462 359.8 76.1042 360.152 76.358C360.508 76.6117 360.927 76.7386 361.408 76.7386C361.73 76.7386 362.021 76.6799 362.283 76.5625C362.548 76.4413 362.769 76.2689 362.947 76.0455C363.129 75.822 363.256 75.553 363.328 75.2386H364.982C364.921 75.803 364.737 76.3068 364.43 76.75C364.124 77.1932 363.713 77.5417 363.197 77.7955C362.686 78.0492 362.086 78.1761 361.396 78.1761ZM370.872 69.2727V70.6364H366.105V69.2727H370.872ZM367.384 67.1818H369.082V75.4375C369.082 75.767 369.132 76.0152 369.23 76.1818C369.329 76.3447 369.455 76.4564 369.611 76.517C369.77 76.5739 369.942 76.6023 370.128 76.6023C370.264 76.6023 370.384 76.5928 370.486 76.5739C370.588 76.5549 370.668 76.5398 370.724 76.5284L371.031 77.9318C370.933 77.9697 370.793 78.0076 370.611 78.0455C370.429 78.0871 370.202 78.1098 369.929 78.1136C369.482 78.1212 369.065 78.0417 368.679 77.875C368.293 77.7083 367.98 77.4508 367.741 77.1023C367.503 76.7538 367.384 76.3163 367.384 75.7898V67.1818ZM374.893 66.3636L374.746 74.6534H373.172L373.024 66.3636H374.893ZM373.962 78.108C373.647 78.108 373.378 77.9981 373.155 77.7784C372.931 77.5549 372.821 77.286 372.825 76.9716C372.821 76.661 372.931 76.3958 373.155 76.1761C373.378 75.9527 373.647 75.8409 373.962 75.8409C374.268 75.8409 374.534 75.9527 374.757 76.1761C374.981 76.3958 375.094 76.661 375.098 76.9716C375.094 77.1799 375.039 77.3712 374.933 77.5455C374.831 77.7159 374.695 77.8523 374.524 77.9545C374.354 78.0568 374.166 78.108 373.962 78.108Z" fill="#161616"/>
</svg>
