<svg width="98" height="24" viewBox="0 0 98 24" fill="none" xmlns="http://www.w3.org/2000/svg">
<path d="M35.3672 18.1989C34.3634 18.1989 33.4685 18.0142 32.6826 17.6449C31.9013 17.2756 31.281 16.7666 30.8218 16.1179C30.3625 15.4692 30.1234 14.7259 30.1044 13.8878H33.0874C33.1205 14.4512 33.3573 14.9081 33.7976 15.2585C34.2379 15.6089 34.7611 15.7841 35.3672 15.7841C35.8502 15.7841 36.2763 15.6776 36.6456 15.4645C37.0197 15.2467 37.3109 14.946 37.5192 14.5625C37.7323 14.1742 37.8388 13.7292 37.8388 13.2273C37.8388 12.7159 37.7299 12.2661 37.5121 11.8778C37.299 11.4896 37.0031 11.1866 36.6243 10.9688C36.2455 10.7509 35.8123 10.6397 35.3246 10.6349C34.8985 10.6349 34.4842 10.7225 34.0817 10.8977C33.684 11.0729 33.3738 11.312 33.1513 11.6151L30.4169 11.125L31.1058 3.45455H39.9979V5.96875H33.6414L33.2649 9.61222H33.3502C33.6058 9.25237 33.9917 8.95407 34.5078 8.71733C35.0239 8.48059 35.6016 8.36222 36.2408 8.36222C37.1167 8.36222 37.898 8.56818 38.5845 8.98011C39.2711 9.39205 39.8132 9.95786 40.211 10.6776C40.6087 11.3925 40.8052 12.2164 40.8004 13.1491C40.8052 14.1293 40.5779 15.0005 40.1186 15.7628C39.6641 16.5204 39.0272 17.117 38.2081 17.5526C37.3937 17.9834 36.4468 18.1989 35.3672 18.1989ZM44.2735 18.1847C43.8047 18.1847 43.4022 18.0189 43.0661 17.6875C42.7346 17.3513 42.5689 16.9489 42.5689 16.4801C42.5689 16.0161 42.7346 15.6184 43.0661 15.2869C43.4022 14.9555 43.8047 14.7898 44.2735 14.7898C44.728 14.7898 45.1257 14.9555 45.4666 15.2869C45.8076 15.6184 45.978 16.0161 45.978 16.4801C45.978 16.7926 45.8975 17.0791 45.7365 17.3395C45.5803 17.5952 45.3743 17.8011 45.1186 17.9574C44.8629 18.1089 44.5812 18.1847 44.2735 18.1847ZM53.5508 18.3196C52.3292 18.3149 51.2781 18.0142 50.3974 17.4176C49.5214 16.821 48.8467 15.9569 48.3732 14.8253C47.9045 13.6937 47.6725 12.3324 47.6772 10.7415C47.6772 9.1553 47.9116 7.8035 48.3803 6.68608C48.8538 5.56865 49.5285 4.71875 50.4045 4.13636C51.2852 3.54924 52.3339 3.25568 53.5508 3.25568C54.7677 3.25568 55.8141 3.54924 56.69 4.13636C57.5707 4.72348 58.2478 5.57576 58.7213 6.69318C59.1947 7.80587 59.4291 9.1553 59.4244 10.7415C59.4244 12.3371 59.1876 13.7008 58.7142 14.8324C58.2454 15.964 57.5731 16.8281 56.6971 17.4247C55.8212 18.0213 54.7724 18.3196 53.5508 18.3196ZM53.5508 15.7699C54.3841 15.7699 55.0494 15.3509 55.5465 14.5128C56.0437 13.6747 56.2899 12.4176 56.2852 10.7415C56.2852 9.63826 56.1715 8.7197 55.9443 7.9858C55.7217 7.25189 55.4045 6.70028 54.9926 6.33097C54.5854 5.96165 54.1048 5.77699 53.5508 5.77699C52.7222 5.77699 52.0593 6.19129 51.5622 7.01989C51.065 7.84848 50.8141 9.08901 50.8093 10.7415C50.8093 11.8589 50.9206 12.7917 51.1431 13.5398C51.3704 14.2831 51.69 14.8419 52.1019 15.2159C52.5139 15.5852 52.9968 15.7699 53.5508 15.7699Z" fill="#161616"/>
<path d="M67.4056 2.77273L62.7181 20.1875H60.8218L65.5093 2.77273H67.4056ZM73.9823 18.1989C73.0921 18.1989 72.2919 18.0284 71.5817 17.6875C70.8762 17.3419 70.3128 16.8684 69.8914 16.267C69.47 15.6657 69.2451 14.9792 69.2166 14.2074H71.3473C71.3994 14.8324 71.6764 15.3461 72.1783 15.7486C72.6802 16.151 73.2815 16.3523 73.9823 16.3523C74.541 16.3523 75.0358 16.2244 75.4666 15.9688C75.9022 15.7083 76.2432 15.3509 76.4894 14.8963C76.7403 14.4418 76.8658 13.9233 76.8658 13.3409C76.8658 12.7491 76.7379 12.2211 76.4823 11.7571C76.2266 11.2931 75.8738 10.9285 75.424 10.6634C74.979 10.3982 74.4676 10.2633 73.8899 10.2585C73.4496 10.2585 73.0069 10.3343 72.5618 10.4858C72.1167 10.6373 71.7569 10.8362 71.4823 11.0824L69.4723 10.7841L70.2891 3.45455H78.2862V5.33665H72.1144L71.6527 9.40625H71.7379C72.022 9.13163 72.3985 8.90199 72.8672 8.71733C73.3407 8.53267 73.8473 8.44034 74.3871 8.44034C75.2725 8.44034 76.0609 8.65104 76.7522 9.07244C77.4482 9.49384 77.9951 10.0691 78.3928 10.7983C78.7952 11.5227 78.9941 12.3561 78.9894 13.2983C78.9941 14.2405 78.781 15.081 78.3502 15.8196C77.924 16.5582 77.3322 17.1406 76.5746 17.5668C75.8218 17.9882 74.9576 18.1989 73.9823 18.1989Z" fill="#4D4D4D"/>
<path d="M12.3012 2.8436C12.6479 1.88278 14.0068 1.88278 14.3535 2.8436L16.0595 7.57118C16.2156 8.0036 16.6259 8.2918 17.0856 8.2918H22.3421C23.4264 8.2918 23.8467 9.70205 22.9393 10.2956L18.8905 12.9443C18.4675 13.221 18.29 13.7521 18.4615 14.2275L20.0532 18.6383C20.4087 19.6236 19.3064 20.495 18.4298 19.9215L13.9246 16.9743C13.5618 16.737 13.0929 16.737 12.7302 16.9743L8.22489 19.9215C7.34834 20.495 6.24599 19.6236 6.60154 18.6383L8.19321 14.2275C8.36479 13.7521 8.18728 13.221 7.76429 12.9443L3.7154 10.2956C2.80804 9.70205 3.22834 8.2918 4.31261 8.2918H9.56909C10.0288 8.2918 10.4392 8.0036 10.5952 7.57118L12.3012 2.8436Z" fill="#FF8C38"/>
</svg>
